<svg xmlns="http://www.w3.org/2000/svg" xmlns:xlink="http://www.w3.org/1999/xlink" xmlns:lucid="lucid" width="2122" height="895.25"><g transform="translate(-8858.999999968268 -2604.250037486232)" lucid:page-tab-id="j2WqKRnXWbIi"><path d="M-3000 2000h15000v10500H-3000z" fill="#fff"/><path d="M10647.1 2710.75v12.5a6 6 0 0 0 6 6h200.9a6 6 0 0 1 6 6v40.62" stroke="#3a414a" fill="none"/><path d="M10647.6 2710.76h-.96v-.5h.95z" stroke="#3a414a" stroke-width=".05" fill="#3a414a"/><path d="M10860 2790.63l-4.64-14.26h9.27z" stroke="#3a414a" fill="#3a414a"/><path d="M10647.1 2710.75v12.5a6 6 0 0 1-6 6H10466a6 6 0 0 0-6 6v16.62" stroke="#3a414a" fill="none"/><path d="M10647.6 2710.76h-.96v-.5h.95z" stroke="#3a414a" stroke-width=".05" fill="#3a414a"/><path d="M10460 2766.63l-4.64-14.26h9.27z" stroke="#3a414a" fill="#3a414a"/><path d="M10300 2777.25a8 8 0 0 1 8-8h304a8 8 0 0 1 8 8v88a8 8 0 0 1-8 8h-304a8 8 0 0 1-8-8z" stroke="#282c33" stroke-width="2" fill="#ffdda6"/><use xlink:href="#a" transform="matrix(1,0,0,1,10312.000000000511,2781.250037500018) translate(117.16666666666667 22.77777777777778)"/><use xlink:href="#b" transform="matrix(1,0,0,1,10312.000000000511,2781.250037500018) translate(26.858024691358025 49.44444444444444)"/><use xlink:href="#c" transform="matrix(1,0,0,1,10312.000000000511,2781.250037500018) translate(152.47530864197532 49.44444444444444)"/><use xlink:href="#d" transform="matrix(1,0,0,1,10312.000000000511,2781.250037500018) translate(14.666666666666686 71.66666666666667)"/><use xlink:href="#e" transform="matrix(1,0,0,1,10312.000000000511,2781.250037500018) translate(94.66666666666667 71.66666666666667)"/><use xlink:href="#f" transform="matrix(1,0,0,1,10312.000000000511,2781.250037500018) translate(112.44444444444446 71.66666666666667)"/><path d="M10496.6 2613.25a8 8 0 0 1 8-8h285a8 8 0 0 1 8 8v88a8 8 0 0 1-8 8h-285a8 8 0 0 1-8-8z" stroke="#282c33" stroke-width="2" fill="#fff"/><use xlink:href="#g" transform="matrix(1,0,0,1,10508.61308605023,2617.250037500018) translate(62.66666666666667 20.27777777777778)"/><use xlink:href="#h" transform="matrix(1,0,0,1,10508.61308605023,2617.250037500018) translate(142.79012345679013 20.27777777777778)"/><use xlink:href="#i" transform="matrix(1,0,0,1,10508.61308605023,2617.250037500018) translate(201.98765432098764 20.27777777777778)"/><use xlink:href="#j" transform="matrix(1,0,0,1,10508.61308605023,2617.250037500018) translate(49.858024691358025 46.94444444444444)"/><use xlink:href="#k" transform="matrix(1,0,0,1,10508.61308605023,2617.250037500018) translate(116.40123456790123 46.94444444444444)"/><use xlink:href="#l" transform="matrix(1,0,0,1,10508.61308605023,2617.250037500018) translate(172.94444444444443 46.94444444444444)"/><use xlink:href="#m" transform="matrix(1,0,0,1,10508.61308605023,2617.250037500018) translate(40.72222222222223 73.61111111111111)"/><use xlink:href="#e" transform="matrix(1,0,0,1,10508.61308605023,2617.250037500018) translate(120.72222222222221 73.61111111111111)"/><use xlink:href="#n" transform="matrix(1,0,0,1,10508.61308605023,2617.250037500018) translate(138.5 73.61111111111111)"/><use xlink:href="#o" transform="matrix(1,0,0,1,10508.61308605023,2617.250037500018) translate(174.05555555555554 73.61111111111111)"/><use xlink:href="#p" transform="matrix(1,0,0,1,10508.61308605023,2617.250037500018) translate(191.83333333333331 73.61111111111111)"/><path d="M9660 3366.75a8 8 0 0 1 8-8h224a8 8 0 0 1 8 8v122.42a8 8 0 0 1-8 8h-224a8 8 0 0 1-8-8z" stroke="#282c33" stroke-width="2" fill="#c3f7c8"/><use xlink:href="#g" transform="matrix(1,0,0,1,9672.000000000175,3370.7525554493177) translate(41.925925925925924 24.96527777777778)"/><use xlink:href="#q" transform="matrix(1,0,0,1,9672.000000000175,3370.7525554493177) translate(122.04938271604938 24.96527777777778)"/><use xlink:href="#r" transform="matrix(1,0,0,1,9672.000000000175,3370.7525554493177) translate(8.808641975308632 51.63194444444445)"/><use xlink:href="#s" transform="matrix(1,0,0,1,9672.000000000175,3370.7525554493177) translate(65.35185185185185 51.63194444444445)"/><use xlink:href="#t" transform="matrix(1,0,0,1,9672.000000000175,3370.7525554493177) translate(92.38888888888887 51.63194444444445)"/><use xlink:href="#u" transform="matrix(1,0,0,1,9672.000000000175,3370.7525554493177) translate(65.96913580246914 78.29861111111111)"/><use xlink:href="#m" transform="matrix(1,0,0,1,9672.000000000175,3370.7525554493177) translate(32.94444444444446 100.52083333333334)"/><use xlink:href="#e" transform="matrix(1,0,0,1,9672.000000000175,3370.7525554493177) translate(112.94444444444444 100.52083333333334)"/><use xlink:href="#v" transform="matrix(1,0,0,1,9672.000000000175,3370.7525554493177) translate(130.72222222222223 100.52083333333334)"/><use xlink:href="#o" transform="matrix(1,0,0,1,9672.000000000175,3370.7525554493177) translate(148.5 100.52083333333334)"/><use xlink:href="#w" transform="matrix(1,0,0,1,9672.000000000175,3370.7525554493177) translate(166.27777777777777 100.52083333333334)"/><path d="M9920 3366.75a8 8 0 0 1 8-8h224a8 8 0 0 1 8 8v122.42a8 8 0 0 1-8 8h-224a8 8 0 0 1-8-8z" stroke="#282c33" stroke-width="2" fill="#c3f7c8"/><use xlink:href="#g" transform="matrix(1,0,0,1,9932.000000000611,3370.7525554493177) translate(41.425925925925924 24.96527777777778)"/><use xlink:href="#q" transform="matrix(1,0,0,1,9932.000000000611,3370.7525554493177) translate(121.54938271604938 24.96527777777778)"/><use xlink:href="#r" transform="matrix(1,0,0,1,9932.000000000611,3370.7525554493177) translate(7.135802469135825 51.63194444444445)"/><use xlink:href="#s" transform="matrix(1,0,0,1,9932.000000000611,3370.7525554493177) translate(63.679012345679034 51.63194444444445)"/><use xlink:href="#x" transform="matrix(1,0,0,1,9932.000000000611,3370.7525554493177) translate(90.71604938271606 51.63194444444445)"/><use xlink:href="#y" transform="matrix(1,0,0,1,9932.000000000611,3370.7525554493177) translate(150.96296296296296 51.63194444444445)"/><use xlink:href="#z" transform="matrix(1,0,0,1,9932.000000000611,3370.7525554493177) translate(79.01851851851852 78.29861111111111)"/><use xlink:href="#m" transform="matrix(1,0,0,1,9932.000000000611,3370.7525554493177) translate(32.44444444444446 100.52083333333334)"/><use xlink:href="#e" transform="matrix(1,0,0,1,9932.000000000611,3370.7525554493177) translate(112.44444444444444 100.52083333333334)"/><use xlink:href="#v" transform="matrix(1,0,0,1,9932.000000000611,3370.7525554493177) translate(130.22222222222223 100.52083333333334)"/><use xlink:href="#o" transform="matrix(1,0,0,1,9932.000000000611,3370.7525554493177) translate(148 100.52083333333334)"/><use xlink:href="#w" transform="matrix(1,0,0,1,9932.000000000611,3370.7525554493177) translate(165.77777777777777 100.52083333333334)"/><path d="M10180 3366.5a8 8 0 0 1 8-8h224a8 8 0 0 1 8 8v122.4a8 8 0 0 1-8 8h-224a8 8 0 0 1-8-8z" stroke="#282c33" stroke-width="2" fill="#c3f7c8"/><use xlink:href="#g" transform="matrix(1,0,0,1,10192.000000000582,3370.4999749999834) translate(41.425925925925924 24.96527777777778)"/><use xlink:href="#q" transform="matrix(1,0,0,1,10192.000000000582,3370.4999749999834) translate(121.54938271604938 24.96527777777778)"/><use xlink:href="#r" transform="matrix(1,0,0,1,10192.000000000582,3370.4999749999834) translate(29.944444444444457 51.63194444444445)"/><use xlink:href="#s" transform="matrix(1,0,0,1,10192.000000000582,3370.4999749999834) translate(86.48765432098767 51.63194444444445)"/><use xlink:href="#A" transform="matrix(1,0,0,1,10192.000000000582,3370.4999749999834) translate(113.5246913580247 51.63194444444445)"/><use xlink:href="#B" transform="matrix(1,0,0,1,10192.000000000582,3370.4999749999834) translate(46.981481481481495 78.29861111111111)"/><use xlink:href="#z" transform="matrix(1,0,0,1,10192.000000000582,3370.4999749999834) translate(111.05555555555556 78.29861111111111)"/><use xlink:href="#m" transform="matrix(1,0,0,1,10192.000000000582,3370.4999749999834) translate(32.44444444444446 100.52083333333334)"/><use xlink:href="#e" transform="matrix(1,0,0,1,10192.000000000582,3370.4999749999834) translate(112.44444444444444 100.52083333333334)"/><use xlink:href="#v" transform="matrix(1,0,0,1,10192.000000000582,3370.4999749999834) translate(130.22222222222223 100.52083333333334)"/><use xlink:href="#o" transform="matrix(1,0,0,1,10192.000000000582,3370.4999749999834) translate(148 100.52083333333334)"/><use xlink:href="#w" transform="matrix(1,0,0,1,10192.000000000582,3370.4999749999834) translate(165.77777777777777 100.52083333333334)"/><path d="M10441 3366.5a8 8 0 0 1 8-8h243a8 8 0 0 1 8 8v124a8 8 0 0 1-8 8h-243a8 8 0 0 1-8-8z" stroke="#282c33" stroke-width="2" fill="#c3f7c8"/><use xlink:href="#g" transform="matrix(1,0,0,1,10452.999950000392,3370.499974999926) translate(51.425925925925924 28.65277777777778)"/><use xlink:href="#q" transform="matrix(1,0,0,1,10452.999950000392,3370.499974999926) translate(131.54938271604937 28.65277777777778)"/><use xlink:href="#r" transform="matrix(1,0,0,1,10452.999950000392,3370.499974999926) translate(5.407407407407419 55.31944444444445)"/><use xlink:href="#s" transform="matrix(1,0,0,1,10452.999950000392,3370.499974999926) translate(61.95061728395063 55.31944444444445)"/><use xlink:href="#C" transform="matrix(1,0,0,1,10452.999950000392,3370.499974999926) translate(88.98765432098766 55.31944444444445)"/><use xlink:href="#D" transform="matrix(1,0,0,1,10452.999950000392,3370.499974999926) translate(149.35802469135803 55.31944444444445)"/><use xlink:href="#E" transform="matrix(1,0,0,1,10452.999950000392,3370.499974999926) translate(56.981481481481495 81.98611111111111)"/><use xlink:href="#F" transform="matrix(1,0,0,1,10452.999950000392,3370.499974999926) translate(121.05555555555556 81.98611111111111)"/><use xlink:href="#m" transform="matrix(1,0,0,1,10452.999950000392,3370.499974999926) translate(42.44444444444446 104.20833333333334)"/><use xlink:href="#e" transform="matrix(1,0,0,1,10452.999950000392,3370.499974999926) translate(122.44444444444444 104.20833333333334)"/><use xlink:href="#v" transform="matrix(1,0,0,1,10452.999950000392,3370.499974999926) translate(140.22222222222223 104.20833333333334)"/><use xlink:href="#o" transform="matrix(1,0,0,1,10452.999950000392,3370.499974999926) translate(158 104.20833333333334)"/><use xlink:href="#w" transform="matrix(1,0,0,1,10452.999950000392,3370.499974999926) translate(175.77777777777777 104.20833333333334)"/><path d="M10721 3366.75a8 8 0 0 1 8-8h223a8 8 0 0 1 8 8v123.5a8 8 0 0 1-8 8h-223a8 8 0 0 1-8-8z" stroke="#282c33" stroke-width="2" fill="#c3f7c8"/><use xlink:href="#g" transform="matrix(1,0,0,1,10732.999950000829,3370.752555449255) translate(41.425925925925924 28.65277777777778)"/><use xlink:href="#q" transform="matrix(1,0,0,1,10732.999950000829,3370.752555449255) translate(121.54938271604938 28.65277777777778)"/><use xlink:href="#r" transform="matrix(1,0,0,1,10732.999950000829,3370.752555449255) translate(10.129629629629633 55.31944444444445)"/><use xlink:href="#s" transform="matrix(1,0,0,1,10732.999950000829,3370.752555449255) translate(66.67283950617283 55.31944444444445)"/><use xlink:href="#G" transform="matrix(1,0,0,1,10732.999950000829,3370.752555449255) translate(93.70987654320987 55.31944444444445)"/><use xlink:href="#H" transform="matrix(1,0,0,1,10732.999950000829,3370.752555449255) translate(157.84567901234567 55.31944444444445)"/><use xlink:href="#E" transform="matrix(1,0,0,1,10732.999950000829,3370.752555449255) translate(46.981481481481495 81.98611111111111)"/><use xlink:href="#F" transform="matrix(1,0,0,1,10732.999950000829,3370.752555449255) translate(111.05555555555556 81.98611111111111)"/><use xlink:href="#m" transform="matrix(1,0,0,1,10732.999950000829,3370.752555449255) translate(32.44444444444446 104.20833333333334)"/><use xlink:href="#e" transform="matrix(1,0,0,1,10732.999950000829,3370.752555449255) translate(112.44444444444444 104.20833333333334)"/><use xlink:href="#v" transform="matrix(1,0,0,1,10732.999950000829,3370.752555449255) translate(130.22222222222223 104.20833333333334)"/><use xlink:href="#o" transform="matrix(1,0,0,1,10732.999950000829,3370.752555449255) translate(148 104.20833333333334)"/><use xlink:href="#w" transform="matrix(1,0,0,1,10732.999950000829,3370.752555449255) translate(165.77777777777777 104.20833333333334)"/><path d="M10700 3309.18v5.82a6 6 0 0 0 6 6h128.5a6 6 0 0 1 6 6v14.37" stroke="#3a414a" fill="none"/><path d="M10700.48 3309.2h-.95v-.52h.94z" stroke="#3a414a" stroke-width=".05" fill="#3a414a"/><path d="M10840.5 3356.14l-4.64-14.27h9.27z" stroke="#3a414a" fill="#3a414a"/><path d="M9659 3302.5v12.5a6 6 0 0 1-6 6h-127a6 6 0 0 0-6 6v14.56" stroke="#3a414a" fill="none"/><path d="M9659.48 3302.5h-.95v-.5h.94z" stroke="#3a414a" stroke-width=".05" fill="#3a414a"/><path d="M9520 3356.33l-4.64-14.27h9.27z" stroke="#3a414a" fill="#3a414a"/><path d="M9659 3302.5v12.5a6 6 0 0 0 6 6h109a6 6 0 0 1 6 6v14.37" stroke="#3a414a" fill="none"/><path d="M9659.48 3302.5h-.95v-.5h.94z" stroke="#3a414a" stroke-width=".05" fill="#3a414a"/><path d="M9780 3356.14l-4.64-14.27h9.27z" stroke="#3a414a" fill="#3a414a"/><path d="M10178 3307.26v7.74a6 6 0 0 1-6 6h-126a6 6 0 0 0-6 6v14.37" stroke="#3a414a" fill="none"/><path d="M10178.48 3307.27h-.95v-.5h.94z" stroke="#3a414a" stroke-width=".05" fill="#3a414a"/><path d="M10040 3356.14l-4.64-14.27h9.27z" stroke="#3a414a" fill="#3a414a"/><path d="M10178 3307.26v7.74a6 6 0 0 0 6 6h110a6 6 0 0 1 6 6v14.12" stroke="#3a414a" fill="none"/><path d="M10178.48 3307.27h-.95v-.5h.94z" stroke="#3a414a" stroke-width=".05" fill="#3a414a"/><path d="M10300 3355.88l-4.64-14.26h9.27z" stroke="#3a414a" fill="#3a414a"/><path d="M10700 3309.18v5.82a6 6 0 0 1-6 6h-117.5a6 6 0 0 0-6 6v14.12" stroke="#3a414a" fill="none"/><path d="M10700.48 3309.2h-.95v-.52h.94z" stroke="#3a414a" stroke-width=".05" fill="#3a414a"/><path d="M10570.5 3355.88l-4.64-14.26h9.27z" stroke="#3a414a" fill="#3a414a"/><path d="M10740 2801.25a8 8 0 0 1 8-8h224a8 8 0 0 1 8 8v64a8 8 0 0 1-8 8h-224a8 8 0 0 1-8-8z" stroke="#282c33" stroke-width="2" fill="#fff"/><g><use xlink:href="#I" transform="matrix(1,0,0,1,10752.000000000511,2805.250037500018) translate(27.93827160493828 24.77777777777778)"/><use xlink:href="#J" transform="matrix(1,0,0,1,10752.000000000511,2805.250037500018) translate(114.17283950617283 24.77777777777778)"/><use xlink:href="#K" transform="matrix(1,0,0,1,10752.000000000511,2805.250037500018) translate(175.71604938271605 24.77777777777778)"/><use xlink:href="#L" transform="matrix(1,0,0,1,10752.000000000511,2805.250037500018) translate(36.888888888888886 47.00000000000001)"/><use xlink:href="#e" transform="matrix(1,0,0,1,10752.000000000511,2805.250037500018) translate(116.88888888888887 47.00000000000001)"/><use xlink:href="#M" transform="matrix(1,0,0,1,10752.000000000511,2805.250037500018) translate(134.66666666666666 47.00000000000001)"/></g><path d="M9800 2948a8 8 0 0 1 8-8h224a8 8 0 0 1 8 8v64a8 8 0 0 1-8 8h-224a8 8 0 0 1-8-8z" stroke="#282c33" stroke-width="2" fill="#fff"/><g><use xlink:href="#I" transform="matrix(1,0,0,1,9812.000000000466,2952) translate(27.93827160493828 24.77777777777778)"/><use xlink:href="#J" transform="matrix(1,0,0,1,9812.000000000466,2952) translate(114.17283950617283 24.77777777777778)"/><use xlink:href="#N" transform="matrix(1,0,0,1,9812.000000000466,2952) translate(175.71604938271605 24.77777777777778)"/><use xlink:href="#m" transform="matrix(1,0,0,1,9812.000000000466,2952) translate(5.7777777777777715 47.00000000000001)"/><use xlink:href="#e" transform="matrix(1,0,0,1,9812.000000000466,2952) translate(85.77777777777776 47.00000000000001)"/><use xlink:href="#O" transform="matrix(1,0,0,1,9812.000000000466,2952) translate(103.55555555555554 47.00000000000001)"/><use xlink:href="#o" transform="matrix(1,0,0,1,9812.000000000466,2952) translate(148 47.00000000000001)"/><use xlink:href="#P" transform="matrix(1,0,0,1,9812.000000000466,2952) translate(165.77777777777777 47.00000000000001)"/></g><path d="M10860 2874.75v23.5a6 6 0 0 1-6 6h-928a6 6 0 0 0-6 6v12.37" stroke="#3a414a" fill="none"/><path d="M10860.48 2874.76h-.95v-.5h.94z" stroke="#3a414a" stroke-width=".05" fill="#3a414a"/><path d="M9920 2937.38l-4.64-14.26h9.27z" stroke="#3a414a" fill="#3a414a"/><path d="M9280 3088a8 8 0 0 1 8-8h224a8 8 0 0 1 8 8v64a8 8 0 0 1-8 8h-224a8 8 0 0 1-8-8z" stroke="#282c33" stroke-width="2" fill="#fff"/><g><use xlink:href="#I" transform="matrix(1,0,0,1,9292.000000000466,3092) translate(27.93827160493828 24.77777777777778)"/><use xlink:href="#J" transform="matrix(1,0,0,1,9292.000000000466,3092) translate(114.17283950617283 24.77777777777778)"/><use xlink:href="#Q" transform="matrix(1,0,0,1,9292.000000000466,3092) translate(175.71604938271605 24.77777777777778)"/><use xlink:href="#m" transform="matrix(1,0,0,1,9292.000000000466,3092) translate(1.3333333333333428 47.00000000000001)"/><use xlink:href="#e" transform="matrix(1,0,0,1,9292.000000000466,3092) translate(81.33333333333333 47.00000000000001)"/><use xlink:href="#R" transform="matrix(1,0,0,1,9292.000000000466,3092) translate(99.11111111111111 47.00000000000001)"/><use xlink:href="#o" transform="matrix(1,0,0,1,9292.000000000466,3092) translate(143.55555555555557 47.00000000000001)"/><use xlink:href="#S" transform="matrix(1,0,0,1,9292.000000000466,3092) translate(161.33333333333334 47.00000000000001)"/></g><path d="M10312.13 3086.96a8 8 0 0 1 8-8h239.75a8 8 0 0 1 8 8v70.23a8 8 0 0 1-8 8h-239.75a8 8 0 0 1-8-8z" stroke="#282c33" stroke-width="2" fill="#fff"/><g><use xlink:href="#I" transform="matrix(1,0,0,1,10324.125093748082,3090.9638463206484) translate(35.93827160493828 25.65277777777778)"/><use xlink:href="#J" transform="matrix(1,0,0,1,10324.125093748082,3090.9638463206484) translate(122.17283950617283 25.65277777777778)"/><use xlink:href="#T" transform="matrix(1,0,0,1,10324.125093748082,3090.9638463206484) translate(183.71604938271605 25.65277777777778)"/><use xlink:href="#m" transform="matrix(1,0,0,1,10324.125093748082,3090.9638463206484) translate(4.888888888888914 47.87500000000001)"/><use xlink:href="#e" transform="matrix(1,0,0,1,10324.125093748082,3090.9638463206484) translate(84.8888888888889 47.87500000000001)"/><use xlink:href="#U" transform="matrix(1,0,0,1,10324.125093748082,3090.9638463206484) translate(102.66666666666669 47.87500000000001)"/><use xlink:href="#o" transform="matrix(1,0,0,1,10324.125093748082,3090.9638463206484) translate(156 47.87500000000001)"/><use xlink:href="#V" transform="matrix(1,0,0,1,10324.125093748082,3090.9638463206484) translate(173.77777777777777 47.87500000000001)"/></g><path d="M9920 3021.5v13a6 6 0 0 0 6 6h508a6 6 0 0 1 6 6v15.08" stroke="#3a414a" fill="none"/><path d="M9920.48 3021.5h-.95v-.5h.94z" stroke="#3a414a" stroke-width=".05" fill="#3a414a"/><path d="M10440 3076.35l-4.64-14.27h9.27z" stroke="#3a414a" fill="#3a414a"/><path d="M9920 3021.5v13a6 6 0 0 1-6 6h-508a6 6 0 0 0-6 6v16.12" stroke="#3a414a" fill="none"/><path d="M9920.48 3021.5h-.95v-.5h.94z" stroke="#3a414a" stroke-width=".05" fill="#3a414a"/><path d="M9400 3077.38l-4.64-14.26h9.27z" stroke="#3a414a" fill="#3a414a"/><path d="M9539 3229a8 8 0 0 1 8-8h224a8 8 0 0 1 8 8v64a8 8 0 0 1-8 8h-224a8 8 0 0 1-8-8z" stroke="#282c33" stroke-width="2" fill="#fff"/><g><use xlink:href="#I" transform="matrix(1,0,0,1,9551.00005000038,3232.999949999852) translate(21.76543209876543 24.77777777777778)"/><use xlink:href="#J" transform="matrix(1,0,0,1,9551.00005000038,3232.999949999852) translate(107.99999999999999 24.77777777777778)"/><use xlink:href="#W" transform="matrix(1,0,0,1,9551.00005000038,3232.999949999852) translate(169.5432098765432 24.77777777777778)"/><use xlink:href="#m" transform="matrix(1,0,0,1,9551.00005000038,3232.999949999852) translate(5.7777777777777715 47.00000000000001)"/><use xlink:href="#e" transform="matrix(1,0,0,1,9551.00005000038,3232.999949999852) translate(85.77777777777776 47.00000000000001)"/><use xlink:href="#X" transform="matrix(1,0,0,1,9551.00005000038,3232.999949999852) translate(103.55555555555554 47.00000000000001)"/><use xlink:href="#o" transform="matrix(1,0,0,1,9551.00005000038,3232.999949999852) translate(148 47.00000000000001)"/><use xlink:href="#Y" transform="matrix(1,0,0,1,9551.00005000038,3232.999949999852) translate(165.77777777777777 47.00000000000001)"/></g><path d="M9400 3161.5v11.07a6 6 0 0 0 6 6h247a6 6 0 0 1 6 6v19.05" stroke="#3a414a" fill="none"/><path d="M9400.48 3161.5h-.95v-.5h.94z" stroke="#3a414a" stroke-width=".05" fill="#3a414a"/><path d="M9659 3218.38l-4.64-14.26h9.27z" stroke="#3a414a" fill="#3a414a"/><path d="M9400 3161.5v11.07a6 6 0 0 1-6 6h-248a6 6 0 0 0-6 6v19.05" stroke="#3a414a" fill="none"/><path d="M9400.48 3161.5h-.95v-.5h.94z" stroke="#3a414a" stroke-width=".05" fill="#3a414a"/><path d="M9140 3218.38l-4.64-14.26h9.27z" stroke="#3a414a" fill="#3a414a"/><path d="M10058 3227.54a8 8 0 0 1 8-8h224a8 8 0 0 1 8 8v70.22a8 8 0 0 1-8 8h-224a8 8 0 0 1-8-8z" stroke="#282c33" stroke-width="2" fill="#fff"/><g><use xlink:href="#I" transform="matrix(1,0,0,1,10070.000100000063,3231.5387787524505) translate(22.382716049382722 25.65277777777778)"/><use xlink:href="#J" transform="matrix(1,0,0,1,10070.000100000063,3231.5387787524505) translate(108.61728395061728 25.65277777777778)"/><use xlink:href="#Z" transform="matrix(1,0,0,1,10070.000100000063,3231.5387787524505) translate(170.1604938271605 25.65277777777778)"/><use xlink:href="#m" transform="matrix(1,0,0,1,10070.000100000063,3231.5387787524505) translate(5.7777777777777715 47.87500000000001)"/><use xlink:href="#e" transform="matrix(1,0,0,1,10070.000100000063,3231.5387787524505) translate(85.77777777777776 47.87500000000001)"/><use xlink:href="#aa" transform="matrix(1,0,0,1,10070.000100000063,3231.5387787524505) translate(103.55555555555554 47.87500000000001)"/><use xlink:href="#o" transform="matrix(1,0,0,1,10070.000100000063,3231.5387787524505) translate(148 47.87500000000001)"/><use xlink:href="#ab" transform="matrix(1,0,0,1,10070.000100000063,3231.5387787524505) translate(165.77777777777777 47.87500000000001)"/></g><path d="M10577 3229.45a8 8 0 0 1 8-8h230a8 8 0 0 1 8 8v70.23a8 8 0 0 1-8 8h-230a8 8 0 0 1-8-8z" stroke="#282c33" stroke-width="2" fill="#fff"/><g><use xlink:href="#I" transform="matrix(1,0,0,1,10589.000149999978,3233.4543944443703) translate(24.76543209876543 25.65277777777778)"/><use xlink:href="#J" transform="matrix(1,0,0,1,10589.000149999978,3233.4543944443703) translate(110.99999999999999 25.65277777777778)"/><use xlink:href="#ac" transform="matrix(1,0,0,1,10589.000149999978,3233.4543944443703) translate(172.5432098765432 25.65277777777778)"/><use xlink:href="#m" transform="matrix(1,0,0,1,10589.000149999978,3233.4543944443703) translate(8.777777777777771 47.87500000000001)"/><use xlink:href="#e" transform="matrix(1,0,0,1,10589.000149999978,3233.4543944443703) translate(88.77777777777776 47.87500000000001)"/><use xlink:href="#ad" transform="matrix(1,0,0,1,10589.000149999978,3233.4543944443703) translate(106.55555555555554 47.87500000000001)"/><use xlink:href="#o" transform="matrix(1,0,0,1,10589.000149999978,3233.4543944443703) translate(151 47.87500000000001)"/><use xlink:href="#ae" transform="matrix(1,0,0,1,10589.000149999978,3233.4543944443703) translate(168.77777777777777 47.87500000000001)"/></g><path d="M10440 3166.7v6.8a6 6 0 0 0 6 6h248a6 6 0 0 1 6 6v18.57" stroke="#3a414a" fill="none"/><path d="M10440.48 3166.7h-.95v-.5h.94z" stroke="#3a414a" stroke-width=".05" fill="#3a414a"/><path d="M10700 3218.84l-4.64-14.27h9.27z" stroke="#3a414a" fill="#3a414a"/><path d="M10440 3166.7v6.8a6 6 0 0 1-6 6h-250a6 6 0 0 0-6 6v16.66" stroke="#3a414a" fill="none"/><path d="M10440.48 3166.7h-.95v-.5h.94z" stroke="#3a414a" stroke-width=".05" fill="#3a414a"/><path d="M10178 3216.92l-4.64-14.26h9.27z" stroke="#3a414a" fill="#3a414a"/><path d="M9160 3301.6v12.5a6 6 0 0 1-6 6h-178a6 6 0 0 0-6 6v12.55" stroke="#3a414a" fill="none"/><path d="M9160.48 3301.62h-.95v-.5h.94z" stroke="#3a414a" stroke-width=".05" fill="#3a414a"/><path d="M8970 3353.42l-4.64-14.27h9.27z" stroke="#3a414a" fill="#3a414a"/><path d="M9160 3301.6v12.5a6 6 0 0 0 6 6h68a6 6 0 0 1 6 6v12.55" stroke="#3a414a" fill="none"/><path d="M9160.48 3301.62h-.95v-.5h.94z" stroke="#3a414a" stroke-width=".05" fill="#3a414a"/><path d="M9240 3353.42l-4.64-14.27h9.27z" stroke="#3a414a" fill="#3a414a"/><path d="M9040 3228.1a8 8 0 0 1 8-8h224a8 8 0 0 1 8 8v64a8 8 0 0 1-8 8h-224a8 8 0 0 1-8-8z" stroke="#282c33" stroke-width="2" fill="#fff"/><g><use xlink:href="#I" transform="matrix(1,0,0,1,9051.999999999884,3232.1110611108597) translate(27.93827160493828 24.77777777777778)"/><use xlink:href="#J" transform="matrix(1,0,0,1,9051.999999999884,3232.1110611108597) translate(114.17283950617283 24.77777777777778)"/><use xlink:href="#af" transform="matrix(1,0,0,1,9051.999999999884,3232.1110611108597) translate(175.71604938271605 24.77777777777778)"/><use xlink:href="#m" transform="matrix(1,0,0,1,9051.999999999884,3232.1110611108597) translate(1.3333333333333428 47.00000000000001)"/><use xlink:href="#e" transform="matrix(1,0,0,1,9051.999999999884,3232.1110611108597) translate(81.33333333333333 47.00000000000001)"/><use xlink:href="#ag" transform="matrix(1,0,0,1,9051.999999999884,3232.1110611108597) translate(99.11111111111111 47.00000000000001)"/><use xlink:href="#o" transform="matrix(1,0,0,1,9051.999999999884,3232.1110611108597) translate(143.55555555555557 47.00000000000001)"/><use xlink:href="#ah" transform="matrix(1,0,0,1,9051.999999999884,3232.1110611108597) translate(161.33333333333334 47.00000000000001)"/></g><path d="M8860 3364.04a8 8 0 0 1 8-8h204a8 8 0 0 1 8 8v124a8 8 0 0 1-8 8h-204a8 8 0 0 1-8-8z" stroke="#282c33" stroke-width="2" fill="#dfe3e8"/><g><use xlink:href="#g" transform="matrix(1,0,0,1,8871.999999999955,3368.036203679395) translate(31.425925925925924 28.74652777777778)"/><use xlink:href="#q" transform="matrix(1,0,0,1,8871.999999999955,3368.036203679395) translate(111.54938271604938 28.74652777777778)"/><use xlink:href="#ai" transform="matrix(1,0,0,1,8871.999999999955,3368.036203679395) translate(51.148148148148145 55.41319444444445)"/><use xlink:href="#j" transform="matrix(1,0,0,1,8871.999999999955,3368.036203679395) translate(39.543209876543216 82.07986111111111)"/><use xlink:href="#aj" transform="matrix(1,0,0,1,8871.999999999955,3368.036203679395) translate(106.08641975308642 82.07986111111111)"/><use xlink:href="#ak" transform="matrix(1,0,0,1,8871.999999999955,3368.036203679395) translate(61.79012345679012 103.41319444444446)"/></g><path d="M9400 3365.83a8 8 0 0 1 8-8h224a8 8 0 0 1 8 8v124a8 8 0 0 1-8 8h-224a8 8 0 0 1-8-8z" stroke="#282c33" stroke-width="2" fill="#dfe3e8"/><g><use xlink:href="#g" transform="matrix(1,0,0,1,9412.000000000116,3369.833308333182) translate(41.425925925925924 25.02777777777778)"/><use xlink:href="#q" transform="matrix(1,0,0,1,9412.000000000116,3369.833308333182) translate(121.54938271604938 25.02777777777778)"/><use xlink:href="#r" transform="matrix(1,0,0,1,9412.000000000116,3369.833308333182) translate(0.31481481481482376 51.69444444444445)"/><use xlink:href="#s" transform="matrix(1,0,0,1,9412.000000000116,3369.833308333182) translate(56.85802469135803 51.69444444444445)"/><use xlink:href="#al" transform="matrix(1,0,0,1,9412.000000000116,3369.833308333182) translate(83.89506172839506 51.69444444444445)"/><use xlink:href="#am" transform="matrix(1,0,0,1,9412.000000000116,3369.833308333182) translate(141.7962962962963 51.69444444444445)"/><use xlink:href="#an" transform="matrix(1,0,0,1,9412.000000000116,3369.833308333182) translate(167.6604938271605 51.69444444444445)"/><use xlink:href="#ao" transform="matrix(1,0,0,1,9412.000000000116,3369.833308333182) translate(65.53086419753086 78.36111111111111)"/><use xlink:href="#ap" transform="matrix(1,0,0,1,9412.000000000116,3369.833308333182) translate(92.5679012345679 78.36111111111111)"/><use xlink:href="#ak" transform="matrix(1,0,0,1,9412.000000000116,3369.833308333182) translate(71.79012345679013 99.69444444444446)"/></g><path d="M9100 3364.04a8 8 0 0 1 8-8h264a8 8 0 0 1 8 8v124a8 8 0 0 1-8 8h-264a8 8 0 0 1-8-8z" stroke="#282c33" stroke-width="2" fill="#dfe3e8"/><g><use xlink:href="#g" transform="matrix(1,0,0,1,9111.999999999953,3368.036203679396) translate(61.425925925925924 25.02777777777778)"/><use xlink:href="#q" transform="matrix(1,0,0,1,9111.999999999953,3368.036203679396) translate(141.54938271604937 25.02777777777778)"/><use xlink:href="#r" transform="matrix(1,0,0,1,9111.999999999953,3368.036203679396) translate(36.919753086419746 51.69444444444445)"/><use xlink:href="#s" transform="matrix(1,0,0,1,9111.999999999953,3368.036203679396) translate(93.46296296296296 51.69444444444445)"/><use xlink:href="#aq" transform="matrix(1,0,0,1,9111.999999999953,3368.036203679396) translate(120.49999999999999 51.69444444444445)"/><use xlink:href="#ao" transform="matrix(1,0,0,1,9111.999999999953,3368.036203679396) translate(167.35185185185185 51.69444444444445)"/><use xlink:href="#ar" transform="matrix(1,0,0,1,9111.999999999953,3368.036203679396) translate(194.38888888888889 51.69444444444445)"/><use xlink:href="#as" transform="matrix(1,0,0,1,9111.999999999953,3368.036203679396) translate(8.462962962962962 78.36111111111111)"/><use xlink:href="#B" transform="matrix(1,0,0,1,9111.999999999953,3368.036203679396) translate(107.0432098765432 78.36111111111111)"/><use xlink:href="#at" transform="matrix(1,0,0,1,9111.999999999953,3368.036203679396) translate(171.11728395061726 78.36111111111111)"/><use xlink:href="#ak" transform="matrix(1,0,0,1,9111.999999999953,3368.036203679396) translate(91.79012345679013 99.69444444444446)"/></g><defs><path fill="#3a414a" d="M30 0v-248h33v221h125V0H30" id="au"/><path fill="#3a414a" d="M30 0v-248h187v28H63v79h144v27H63v87h162V0H30" id="av"/><path fill="#3a414a" d="M205 0l-28-72H64L36 0H1l101-248h38L239 0h-34zm-38-99l-47-123c-12 45-31 82-46 123h93" id="aw"/><path fill="#3a414a" d="M63-220v92h138v28H63V0H30v-248h175v28H63" id="ax"/><path fill="#3a414a" d="M33-154v-36h34v36H33zM33 0v-36h34V0H33" id="ay"/><g id="a"><use transform="matrix(0.06172839506172839,0,0,0.06172839506172839,0,0)" xlink:href="#au"/><use transform="matrix(0.06172839506172839,0,0,0.06172839506172839,12.345679012345679,0)" xlink:href="#av"/><use transform="matrix(0.06172839506172839,0,0,0.06172839506172839,27.160493827160494,0)" xlink:href="#aw"/><use transform="matrix(0.06172839506172839,0,0,0.06172839506172839,41.9753086419753,0)" xlink:href="#ax"/><use transform="matrix(0.06172839506172839,0,0,0.06172839506172839,55.49382716049382,0)" xlink:href="#ay"/></g><path fill="#3a414a" d="M67-125c0 53 21 87 73 88 37 1 54-22 65-47l45 17C233-25 199 4 140 4 58 4 20-42 15-125 8-235 124-281 211-232c18 10 29 29 36 50l-46 12c-8-25-30-41-62-41-52 0-71 34-72 86" id="az"/><path fill="#3a414a" d="M110-194c64 0 96 36 96 99 0 64-35 99-97 99-61 0-95-36-95-99 0-62 34-99 96-99zm-1 164c35 0 45-28 45-65 0-40-10-65-43-65-34 0-45 26-45 65 0 36 10 65 43 65" id="aA"/><path fill="#3a414a" d="M135-194c87-1 58 113 63 194h-50c-7-57 23-157-34-157-59 0-34 97-39 157H25l-1-190h47c2 12-1 28 3 38 12-26 28-41 61-42" id="aB"/><path fill="#3a414a" d="M137-138c1-29-70-34-71-4 15 46 118 7 119 86 1 83-164 76-172 9l43-7c4 19 20 25 44 25 33 8 57-30 24-41C81-84 22-81 20-136c-2-80 154-74 161-7" id="aC"/><path fill="#3a414a" d="M185-48c-13 30-37 53-82 52C43 2 14-33 14-96s30-98 90-98c62 0 83 45 84 108H66c0 31 8 55 39 56 18 0 30-7 34-22zm-45-69c5-46-57-63-70-21-2 6-4 13-4 21h74" id="aD"/><path fill="#3a414a" d="M85 4C-2 5 27-109 22-190h50c7 57-23 150 33 157 60-5 35-97 40-157h50l1 190h-47c-2-12 1-28-3-38-12 25-28 42-61 42" id="aE"/><g id="b"><use transform="matrix(0.06172839506172839,0,0,0.06172839506172839,0,0)" xlink:href="#az"/><use transform="matrix(0.06172839506172839,0,0,0.06172839506172839,15.987654320987653,0)" xlink:href="#aA"/><use transform="matrix(0.06172839506172839,0,0,0.06172839506172839,29.50617283950617,0)" xlink:href="#aB"/><use transform="matrix(0.06172839506172839,0,0,0.06172839506172839,43.02469135802469,0)" xlink:href="#aC"/><use transform="matrix(0.06172839506172839,0,0,0.06172839506172839,55.37037037037037,0)" xlink:href="#aD"/><use transform="matrix(0.06172839506172839,0,0,0.06172839506172839,67.71604938271605,0)" xlink:href="#aB"/><use transform="matrix(0.06172839506172839,0,0,0.06172839506172839,81.23456790123457,0)" xlink:href="#aC"/><use transform="matrix(0.06172839506172839,0,0,0.06172839506172839,93.58024691358025,0)" xlink:href="#aE"/><use transform="matrix(0.06172839506172839,0,0,0.06172839506172839,107.09876543209877,0)" xlink:href="#aC"/></g><path fill="#3a414a" d="M136-208V0H84v-208H4v-40h212v40h-80" id="aF"/><path fill="#3a414a" d="M25-224v-37h50v37H25zM25 0v-190h50V0H25" id="aG"/><path fill="#3a414a" d="M220-157c-53 9-28 100-34 157h-49v-107c1-27-5-49-29-50C55-147 81-57 75 0H25l-1-190h47c2 12-1 28 3 38 10-53 101-56 108 0 13-22 24-43 59-42 82 1 51 116 57 194h-49v-107c-1-25-5-48-29-50" id="aH"/><path fill="#3a414a" d="M115-3C79 11 28 4 28-45v-112H4v-33h27l15-45h31v45h36v33H77v99c-1 23 16 31 38 25v30" id="aI"/><path fill="#3a414a" d="M133-34C117-15 103 5 69 4 32 3 11-16 11-54c-1-60 55-63 116-61 1-26-3-47-28-47-18 1-26 9-28 27l-52-2c7-38 36-58 82-57s74 22 75 68l1 82c-1 14 12 18 25 15v27c-30 8-71 5-69-32zm-48 3c29 0 43-24 42-57-32 0-66-3-65 30 0 17 8 27 23 27" id="aJ"/><path fill="#3a414a" d="M135-194c53 0 70 44 70 98 0 56-19 98-73 100-31 1-45-17-59-34 3 33 2 69 2 105H25l-1-265h48c2 10 0 23 3 31 11-24 29-35 60-35zM114-30c33 0 39-31 40-66 0-38-9-64-40-64-56 0-55 130 0 130" id="aK"/><g id="c"><use transform="matrix(0.06172839506172839,0,0,0.06172839506172839,0,0)" xlink:href="#aF"/><use transform="matrix(0.06172839506172839,0,0,0.06172839506172839,13.08641975308642,0)" xlink:href="#aG"/><use transform="matrix(0.06172839506172839,0,0,0.06172839506172839,19.25925925925926,0)" xlink:href="#aH"/><use transform="matrix(0.06172839506172839,0,0,0.06172839506172839,39.01234567901234,0)" xlink:href="#aD"/><use transform="matrix(0.06172839506172839,0,0,0.06172839506172839,51.35802469135802,0)" xlink:href="#aC"/><use transform="matrix(0.06172839506172839,0,0,0.06172839506172839,63.7037037037037,0)" xlink:href="#aI"/><use transform="matrix(0.06172839506172839,0,0,0.06172839506172839,71.04938271604938,0)" xlink:href="#aJ"/><use transform="matrix(0.06172839506172839,0,0,0.06172839506172839,83.39506172839506,0)" xlink:href="#aH"/><use transform="matrix(0.06172839506172839,0,0,0.06172839506172839,103.14814814814815,0)" xlink:href="#aK"/></g><path fill="#1071e5" d="M340-289c1-47-19-97-60-97-33 0-73 12-121 36V0H56v-667h103v220c54-24 96-36 127-36 121 0 157 74 157 196V0H340v-289" id="aL"/><path fill="#1071e5" d="M151-141c0 92 147 47 181 13v-70c-81-7-182-19-181 57zm107-342c138 2 175 54 177 193 1 100-5 207 11 291L343 11l-10-46C277-4 233 11 200 11 93 11 40-40 40-141c0-149 146-155 292-141-2-72-11-101-76-104-51-1-147 17-184 30l-19-95c70-21 138-32 205-32" id="aM"/><path fill="#1071e5" d="M264-390c-57 0-91-1-91 42 0 15 7 27 19 34 32 18 184 49 208 80 24 18 36 49 36 93 0 101-62 151-186 151-58 0-120-11-187-32l22-91c63 20 114 30 151 30 60 0 91-1 96-47-6-49-34-44-86-60-109-34-177-35-177-150 0-95 61-143 184-143 53 0 114 9 183 26l-19 95c-66-19-117-28-153-28" id="aN"/><path fill="#1071e5" d="M332 170C235 23 174-89 174-318c0-228 63-342 158-488l75 48c-84 131-134 233-135 440 0 206 49 310 133 438" id="aO"/><path fill="#1071e5" d="M40-318c0-196 42-326 210-326s209 130 209 326c0 195-43 328-210 328S40-123 40-318zm152 218c42 35 117 21 136-31 32-47 33-327 0-373-25-63-132-64-157 0-31 46-26 272-11 332 8 35 17 60 32 72" id="aP"/><path fill="#1071e5" d="M30-476h129l91 160 90-160h126L321-241 476 1H348l-98-165L153 1H25l157-242" id="aQ"/><g id="d"><use transform="matrix(0.017777777777777778,0,0,0.017777777777777778,0,0)" xlink:href="#aL"/><use transform="matrix(0.017777777777777778,0,0,0.017777777777777778,8.88888888888889,0)" xlink:href="#aM"/><use transform="matrix(0.017777777777777778,0,0,0.017777777777777778,17.77777777777778,0)" xlink:href="#aN"/><use transform="matrix(0.017777777777777778,0,0,0.017777777777777778,26.666666666666668,0)" xlink:href="#aL"/><use transform="matrix(0.017777777777777778,0,0,0.017777777777777778,35.55555555555556,0)" xlink:href="#aO"/><use transform="matrix(0.017777777777777778,0,0,0.017777777777777778,44.44444444444444,0)" xlink:href="#aP"/><use transform="matrix(0.017777777777777778,0,0,0.017777777777777778,53.33333333333333,0)" xlink:href="#aQ"/><use transform="matrix(0.017777777777777778,0,0,0.017777777777777778,62.222222222222214,0)" xlink:href="#aP"/></g><path fill="#1071e5" d="M302-743v987H199v-987h103" id="aR"/><use transform="matrix(0.017777777777777778,0,0,0.017777777777777778,0,0)" xlink:href="#aR" id="e"/><path fill="#1071e5" d="M292 10C84 6 40-108 40-334c0-221 81-331 242-331 56 0 112 10 169 29l-22 85c-96-23-194-40-248 31-42 55-41 321-7 382 47 83 173 56 272 31l18 87C396 0 338 10 292 10" id="aS"/><path fill="#1071e5" d="M42-236c0-159 57-247 208-247s208 89 208 247S401 13 250 13 42-78 42-236zm208-150c-86 0-97 55-97 150 0 94 12 152 97 152s97-58 97-152c0-95-11-150-97-150" id="aT"/><path fill="#1071e5" d="M340-284c0-57-17-101-70-102-24 0-61 12-111 35V0H56v-475h100l2 29c54-25 96-37 127-37 118 2 158 71 158 196V0H340v-284" id="aU"/><path fill="#1071e5" d="M49-237c0-149 66-244 204-246 160-3 222 126 199 296H160c4 137 147 118 254 83l21 87C400-4 314 11 268 11 122 11 49-72 49-237zm208-153c-72 0-93 43-97 119h185c0-79-29-119-88-119" id="aV"/><path fill="#1071e5" d="M208 10C90 8 54-59 53-185v-290h103v284c-4 137 104 115 181 62v-346h103V0H340l-2-35c-53 30-97 45-130 45" id="aW"/><path fill="#1071e5" d="M28-561v-94h442v94H301V0H197v-561H28" id="aX"/><path fill="#1071e5" d="M103-381v-92h214v381h111V0H95v-92h119v-289H103zm158-160c-32 0-63-32-63-65 0-34 28-62 62-62s62 27 62 62c0 34-28 65-61 65" id="aY"/><path fill="#1071e5" d="M203-274c-7-77 10-114-31-114-10 0-25 7-44 22V0H23v-475h98l3 27c45-48 115-46 151 3 35-25 65-38 92-38 96 0 111 54 111 165V0H376v-274c-6-79 6-114-39-114-10 0-23 7-38 20 8 39 4 148 5 205H203v-111" id="aZ"/><path fill="#1071e5" d="M175 0v-145h145V0H175" id="ba"/><path fill="#1071e5" d="M472-238c2 159-72 248-223 249-24 0-54-7-89-21v202H57c-3-221 7-456-6-667l100-7 6 44c45-30 84-45 119-45 147 3 195 89 196 245zm-111 2c0-172-98-181-201-107v238c107 50 201 13 201-131" id="bb"/><path fill="#1071e5" d="M442-383c-51 5-143 35-179 56v237h146V0H81v-92h77v-291H81v-92h180l2 48c39-23 123-50 179-56v100" id="bc"/><path fill="#1071e5" d="M299 11C162 9 140-43 140-182v-201H64v-92h76v-114l103-10v124h178v92H243v201c2 67 1 97 63 99 27 0 62-5 106-16l17 90c-51 13-94 20-130 20" id="bd"/><path fill="#1071e5" d="M76 120C160-9 209-112 209-318c-1-207-51-309-135-440l75-48c96 147 158 259 158 488 0 230-61 340-158 488" id="be"/><g id="f"><use transform="matrix(0.017777777777777778,0,0,0.017777777777777778,0,0)" xlink:href="#aS"/><use transform="matrix(0.017777777777777778,0,0,0.017777777777777778,8.88888888888889,0)" xlink:href="#aT"/><use transform="matrix(0.017777777777777778,0,0,0.017777777777777778,17.77777777777778,0)" xlink:href="#aU"/><use transform="matrix(0.017777777777777778,0,0,0.017777777777777778,26.666666666666668,0)" xlink:href="#aN"/><use transform="matrix(0.017777777777777778,0,0,0.017777777777777778,35.55555555555556,0)" xlink:href="#aV"/><use transform="matrix(0.017777777777777778,0,0,0.017777777777777778,44.44444444444444,0)" xlink:href="#aU"/><use transform="matrix(0.017777777777777778,0,0,0.017777777777777778,53.33333333333333,0)" xlink:href="#aW"/><use transform="matrix(0.017777777777777778,0,0,0.017777777777777778,62.222222222222214,0)" xlink:href="#aN"/><use transform="matrix(0.017777777777777778,0,0,0.017777777777777778,71.1111111111111,0)" xlink:href="#aX"/><use transform="matrix(0.017777777777777778,0,0,0.017777777777777778,79.99999999999999,0)" xlink:href="#aY"/><use transform="matrix(0.017777777777777778,0,0,0.017777777777777778,88.88888888888887,0)" xlink:href="#aZ"/><use transform="matrix(0.017777777777777778,0,0,0.017777777777777778,97.77777777777776,0)" xlink:href="#aV"/><use transform="matrix(0.017777777777777778,0,0,0.017777777777777778,106.66666666666666,0)" xlink:href="#ba"/><use transform="matrix(0.017777777777777778,0,0,0.017777777777777778,115.55555555555553,0)" xlink:href="#bb"/><use transform="matrix(0.017777777777777778,0,0,0.017777777777777778,124.44444444444441,0)" xlink:href="#bc"/><use transform="matrix(0.017777777777777778,0,0,0.017777777777777778,133.33333333333331,0)" xlink:href="#aT"/><use transform="matrix(0.017777777777777778,0,0,0.017777777777777778,142.2222222222222,0)" xlink:href="#bd"/><use transform="matrix(0.017777777777777778,0,0,0.017777777777777778,151.1111111111111,0)" xlink:href="#aT"/><use transform="matrix(0.017777777777777778,0,0,0.017777777777777778,159.99999999999997,0)" xlink:href="#be"/></g><path fill="#3a414a" d="M33 0v-248h34V0H33" id="bf"/><path fill="#3a414a" d="M117-194c89-4 53 116 60 194h-32v-121c0-31-8-49-39-48C34-167 62-67 57 0H25l-1-190h30c1 10-1 24 2 32 11-22 29-35 61-36" id="bg"/><path fill="#3a414a" d="M59-47c-2 24 18 29 38 22v24C64 9 27 4 27-40v-127H5v-23h24l9-43h21v43h35v23H59v120" id="bh"/><path fill="#3a414a" d="M100-194c63 0 86 42 84 106H49c0 40 14 67 53 68 26 1 43-12 49-29l28 8c-11 28-37 45-77 45C44 4 14-33 15-96c1-61 26-98 85-98zm52 81c6-60-76-77-97-28-3 7-6 17-6 28h103" id="bi"/><path fill="#3a414a" d="M114-163C36-179 61-72 57 0H25l-1-190h30c1 12-1 29 2 39 6-27 23-49 58-41v29" id="bj"/><path fill="#3a414a" d="M141-36C126-15 110 5 73 4 37 3 15-17 15-53c-1-64 63-63 125-63 3-35-9-54-41-54-24 1-41 7-42 31l-33-3c5-37 33-52 76-52 45 0 72 20 72 64v82c-1 20 7 32 28 27v20c-31 9-61-2-59-35zM48-53c0 20 12 33 32 33 41-3 63-29 60-74-43 2-92-5-92 41" id="bk"/><path fill="#3a414a" d="M24 0v-261h32V0H24" id="bl"/><g id="g"><use transform="matrix(0.06172839506172839,0,0,0.06172839506172839,0,0)" xlink:href="#bf"/><use transform="matrix(0.06172839506172839,0,0,0.06172839506172839,6.172839506172839,0)" xlink:href="#bg"/><use transform="matrix(0.06172839506172839,0,0,0.06172839506172839,18.51851851851852,0)" xlink:href="#bh"/><use transform="matrix(0.06172839506172839,0,0,0.06172839506172839,24.691358024691358,0)" xlink:href="#bi"/><use transform="matrix(0.06172839506172839,0,0,0.06172839506172839,37.03703703703704,0)" xlink:href="#bj"/><use transform="matrix(0.06172839506172839,0,0,0.06172839506172839,44.382716049382715,0)" xlink:href="#bg"/><use transform="matrix(0.06172839506172839,0,0,0.06172839506172839,56.72839506172839,0)" xlink:href="#bk"/><use transform="matrix(0.06172839506172839,0,0,0.06172839506172839,69.07407407407408,0)" xlink:href="#bl"/></g><path fill="#3a414a" d="M190 0L58-211 59 0H30v-248h39L202-35l-2-213h31V0h-41" id="bm"/><path fill="#3a414a" d="M100-194c62-1 85 37 85 99 1 63-27 99-86 99S16-35 15-95c0-66 28-99 85-99zM99-20c44 1 53-31 53-75 0-43-8-75-51-75s-53 32-53 75 10 74 51 75" id="bn"/><path fill="#3a414a" d="M85-194c31 0 48 13 60 33l-1-100h32l1 261h-30c-2-10 0-23-3-31C134-8 116 4 85 4 32 4 16-35 15-94c0-66 23-100 70-100zm9 24c-40 0-46 34-46 75 0 40 6 74 45 74 42 0 51-32 51-76 0-42-9-74-50-73" id="bo"/><g id="h"><use transform="matrix(0.06172839506172839,0,0,0.06172839506172839,0,0)" xlink:href="#bm"/><use transform="matrix(0.06172839506172839,0,0,0.06172839506172839,15.987654320987653,0)" xlink:href="#bn"/><use transform="matrix(0.06172839506172839,0,0,0.06172839506172839,28.333333333333332,0)" xlink:href="#bo"/><use transform="matrix(0.06172839506172839,0,0,0.06172839506172839,40.67901234567901,0)" xlink:href="#bi"/></g><path fill="#3a414a" d="M27 0v-27h64v-190l-56 39v-29l58-41h29v221h61V0H27" id="bp"/><use transform="matrix(0.06172839506172839,0,0,0.06172839506172839,0,0)" xlink:href="#bp" id="i"/><path fill="#3a414a" d="M182-130c37 4 62 22 62 59C244 23 116-4 24 0v-248c84 5 203-23 205 63 0 31-19 50-47 55zM76-148c40-3 101 13 101-30 0-44-60-28-101-31v61zm0 110c48-3 116 14 116-37 0-48-69-32-116-35v72" id="bq"/><path fill="#3a414a" d="M25 0v-261h50V0H25" id="br"/><path fill="#3a414a" d="M190-63c-7 42-38 67-86 67-59 0-84-38-90-98-12-110 154-137 174-36l-49 2c-2-19-15-32-35-32-30 0-35 28-38 64-6 74 65 87 74 30" id="bs"/><path fill="#3a414a" d="M147 0L96-86 75-71V0H25v-261h50v150l67-79h53l-66 74L201 0h-54" id="bt"/><g id="j"><use transform="matrix(0.06172839506172839,0,0,0.06172839506172839,0,0)" xlink:href="#bq"/><use transform="matrix(0.06172839506172839,0,0,0.06172839506172839,15.987654320987653,0)" xlink:href="#br"/><use transform="matrix(0.06172839506172839,0,0,0.06172839506172839,22.160493827160494,0)" xlink:href="#aA"/><use transform="matrix(0.06172839506172839,0,0,0.06172839506172839,35.67901234567901,0)" xlink:href="#bs"/><use transform="matrix(0.06172839506172839,0,0,0.06172839506172839,48.02469135802469,0)" xlink:href="#bt"/></g><path fill="#3a414a" d="M240-174c0 40-23 61-54 70L253 0h-59l-57-94H76V0H24v-248c93 4 217-23 216 74zM76-134c48-2 112 12 112-38 0-48-66-32-112-35v73" id="bu"/><g id="k"><use transform="matrix(0.06172839506172839,0,0,0.06172839506172839,0,0)" xlink:href="#bu"/><use transform="matrix(0.06172839506172839,0,0,0.06172839506172839,15.987654320987653,0)" xlink:href="#aA"/><use transform="matrix(0.06172839506172839,0,0,0.06172839506172839,29.50617283950617,0)" xlink:href="#aA"/><use transform="matrix(0.06172839506172839,0,0,0.06172839506172839,43.02469135802469,0)" xlink:href="#aI"/></g><path fill="#3a414a" d="M186 0v-106H76V0H24v-248h52v99h110v-99h50V0h-50" id="bv"/><path fill="#3a414a" d="M114-157C55-157 80-60 75 0H25v-261h50l-1 109c12-26 28-41 61-42 86-1 58 113 63 194h-50c-7-57 23-157-34-157" id="bw"/><g id="l"><use transform="matrix(0.06172839506172839,0,0,0.06172839506172839,0,0)" xlink:href="#bv"/><use transform="matrix(0.06172839506172839,0,0,0.06172839506172839,15.987654320987653,0)" xlink:href="#aJ"/><use transform="matrix(0.06172839506172839,0,0,0.06172839506172839,28.333333333333332,0)" xlink:href="#aC"/><use transform="matrix(0.06172839506172839,0,0,0.06172839506172839,40.67901234567901,0)" xlink:href="#bw"/></g><path fill="#1071e5" d="M240-643c116-2 204 64 204 184 0 189-224 250-275 362h299V0H53v-89c41-100 129-164 207-225 54-43 79-92 79-145 0-56-38-95-91-93-74 2-97 32-155 68l-51-75c48-35 126-83 198-84" id="bx"/><g id="m"><use transform="matrix(0.017777777777777778,0,0,0.017777777777777778,0,0)" xlink:href="#aL"/><use transform="matrix(0.017777777777777778,0,0,0.017777777777777778,8.88888888888889,0)" xlink:href="#aM"/><use transform="matrix(0.017777777777777778,0,0,0.017777777777777778,17.77777777777778,0)" xlink:href="#aN"/><use transform="matrix(0.017777777777777778,0,0,0.017777777777777778,26.666666666666668,0)" xlink:href="#aL"/><use transform="matrix(0.017777777777777778,0,0,0.017777777777777778,35.55555555555556,0)" xlink:href="#aO"/><use transform="matrix(0.017777777777777778,0,0,0.017777777777777778,44.44444444444444,0)" xlink:href="#aP"/><use transform="matrix(0.017777777777777778,0,0,0.017777777777777778,53.33333333333333,0)" xlink:href="#aQ"/><use transform="matrix(0.017777777777777778,0,0,0.017777777777777778,62.222222222222214,0)" xlink:href="#bx"/></g><path fill="#1071e5" d="M298-251l19-172H203l-19 172h114zm179 74H373L353 0h-83l21-177H177L156 0H74l21-177H0v-74h102l19-172H23v-73h105l18-159h82l-18 159h115l17-159h82l-17 159h93v73H399l-19 172h97v74" id="by"/><g id="n"><use transform="matrix(0.017777777777777778,0,0,0.017777777777777778,0,0)" xlink:href="#aS"/><use transform="matrix(0.017777777777777778,0,0,0.017777777777777778,8.88888888888889,0)" xlink:href="#aX"/><use transform="matrix(0.017777777777777778,0,0,0.017777777777777778,17.77777777777778,0)" xlink:href="#by"/></g><use transform="matrix(0.017777777777777778,0,0,0.017777777777777778,0,0)" xlink:href="#aR" id="o"/><path fill="#1071e5" d="M72 0v-93h129v-469H72v-93h353v93H305v469h120V0H72" id="bz"/><path fill="#1071e5" d="M375 0v-87L128-493h-3V0H31v-655h94l246 410h4v-410h94V0h-94" id="bA"/><g id="p"><use transform="matrix(0.017777777777777778,0,0,0.017777777777777778,0,0)" xlink:href="#bz"/><use transform="matrix(0.017777777777777778,0,0,0.017777777777777778,8.88888888888889,0)" xlink:href="#bA"/><use transform="matrix(0.017777777777777778,0,0,0.017777777777777778,17.77777777777778,0)" xlink:href="#bx"/><use transform="matrix(0.017777777777777778,0,0,0.017777777777777778,26.666666666666668,0)" xlink:href="#by"/><use transform="matrix(0.017777777777777778,0,0,0.017777777777777778,35.55555555555556,0)" xlink:href="#be"/></g><g id="q"><use transform="matrix(0.06172839506172839,0,0,0.06172839506172839,0,0)" xlink:href="#bm"/><use transform="matrix(0.06172839506172839,0,0,0.06172839506172839,15.987654320987653,0)" xlink:href="#bn"/><use transform="matrix(0.06172839506172839,0,0,0.06172839506172839,28.333333333333332,0)" xlink:href="#bo"/><use transform="matrix(0.06172839506172839,0,0,0.06172839506172839,40.67901234567901,0)" xlink:href="#bi"/></g><g id="r"><use transform="matrix(0.06172839506172839,0,0,0.06172839506172839,0,0)" xlink:href="#bu"/><use transform="matrix(0.06172839506172839,0,0,0.06172839506172839,15.987654320987653,0)" xlink:href="#aA"/><use transform="matrix(0.06172839506172839,0,0,0.06172839506172839,29.50617283950617,0)" xlink:href="#aA"/><use transform="matrix(0.06172839506172839,0,0,0.06172839506172839,43.02469135802469,0)" xlink:href="#aI"/></g><path fill="#3a414a" d="M121-226c-27-7-43 5-38 36h38v33H83V0H34v-157H6v-33h28c-9-59 32-81 87-68v32" id="bB"/><g id="s"><use transform="matrix(0.06172839506172839,0,0,0.06172839506172839,0,0)" xlink:href="#aA"/><use transform="matrix(0.06172839506172839,0,0,0.06172839506172839,13.518518518518517,0)" xlink:href="#bB"/></g><g id="t"><use transform="matrix(0.06172839506172839,0,0,0.06172839506172839,0,0)" xlink:href="#bs"/><use transform="matrix(0.06172839506172839,0,0,0.06172839506172839,12.345679012345679,0)" xlink:href="#aA"/><use transform="matrix(0.06172839506172839,0,0,0.06172839506172839,25.864197530864196,0)" xlink:href="#aB"/><use transform="matrix(0.06172839506172839,0,0,0.06172839506172839,39.382716049382715,0)" xlink:href="#aC"/><use transform="matrix(0.06172839506172839,0,0,0.06172839506172839,51.72839506172839,0)" xlink:href="#aD"/><use transform="matrix(0.06172839506172839,0,0,0.06172839506172839,64.07407407407408,0)" xlink:href="#aB"/><use transform="matrix(0.06172839506172839,0,0,0.06172839506172839,77.5925925925926,0)" xlink:href="#aC"/><use transform="matrix(0.06172839506172839,0,0,0.06172839506172839,89.93827160493828,0)" xlink:href="#aE"/><use transform="matrix(0.06172839506172839,0,0,0.06172839506172839,103.4567901234568,0)" xlink:href="#aC"/></g><path fill="#3a414a" d="M88-194c31-1 46 15 58 34l-1-101h50l1 261h-48c-2-10 0-23-3-31C134-8 116 4 84 4 32 4 16-41 15-95c0-56 19-97 73-99zm17 164c33 0 40-30 41-66 1-37-9-64-41-64s-38 30-39 65c0 43 13 65 39 65" id="bC"/><path fill="#3a414a" d="M135-150c-39-12-60 13-60 57V0H25l-1-190h47c2 13-1 29 3 40 6-28 27-53 61-41v41" id="bD"/><g id="u"><use transform="matrix(0.06172839506172839,0,0,0.06172839506172839,0,0)" xlink:href="#bw"/><use transform="matrix(0.06172839506172839,0,0,0.06172839506172839,13.518518518518517,0)" xlink:href="#aD"/><use transform="matrix(0.06172839506172839,0,0,0.06172839506172839,25.864197530864196,0)" xlink:href="#aJ"/><use transform="matrix(0.06172839506172839,0,0,0.06172839506172839,38.20987654320987,0)" xlink:href="#bC"/><use transform="matrix(0.06172839506172839,0,0,0.06172839506172839,51.72839506172839,0)" xlink:href="#aD"/><use transform="matrix(0.06172839506172839,0,0,0.06172839506172839,64.07407407407408,0)" xlink:href="#bD"/><use transform="matrix(0.06172839506172839,0,0,0.06172839506172839,72.71604938271605,0)" xlink:href="#aC"/></g><use transform="matrix(0.017777777777777778,0,0,0.017777777777777778,0,0)" xlink:href="#by" id="v"/><g id="w"><use transform="matrix(0.017777777777777778,0,0,0.017777777777777778,0,0)" xlink:href="#by"/><use transform="matrix(0.017777777777777778,0,0,0.017777777777777778,8.88888888888889,0)" xlink:href="#be"/></g><path fill="#3a414a" d="M24 0v-248h52V0H24" id="bE"/><g id="x"><use transform="matrix(0.06172839506172839,0,0,0.06172839506172839,0,0)" xlink:href="#bE"/><use transform="matrix(0.06172839506172839,0,0,0.06172839506172839,6.172839506172839,0)" xlink:href="#aB"/><use transform="matrix(0.06172839506172839,0,0,0.06172839506172839,19.691358024691358,0)" xlink:href="#aK"/><use transform="matrix(0.06172839506172839,0,0,0.06172839506172839,33.20987654320987,0)" xlink:href="#aE"/><use transform="matrix(0.06172839506172839,0,0,0.06172839506172839,46.72839506172839,0)" xlink:href="#aI"/></g><path fill="#3a414a" d="M135-194c52 0 70 43 70 98 0 56-19 99-73 100-30 1-46-15-58-35L72 0H24l1-261h50v104c11-23 29-37 60-37zM114-30c31 0 40-27 40-66 0-37-7-63-39-63s-41 28-41 65c0 36 8 64 40 64" id="bF"/><g id="y"><use transform="matrix(0.06172839506172839,0,0,0.06172839506172839,0,0)" xlink:href="#bF"/><use transform="matrix(0.06172839506172839,0,0,0.06172839506172839,13.518518518518517,0)" xlink:href="#br"/><use transform="matrix(0.06172839506172839,0,0,0.06172839506172839,19.691358024691358,0)" xlink:href="#aA"/><use transform="matrix(0.06172839506172839,0,0,0.06172839506172839,33.20987654320987,0)" xlink:href="#bs"/><use transform="matrix(0.06172839506172839,0,0,0.06172839506172839,45.55555555555555,0)" xlink:href="#bt"/></g><g id="z"><use transform="matrix(0.06172839506172839,0,0,0.06172839506172839,0,0)" xlink:href="#aG"/><use transform="matrix(0.06172839506172839,0,0,0.06172839506172839,6.172839506172839,0)" xlink:href="#aI"/><use transform="matrix(0.06172839506172839,0,0,0.06172839506172839,13.518518518518519,0)" xlink:href="#aD"/><use transform="matrix(0.06172839506172839,0,0,0.06172839506172839,25.864197530864196,0)" xlink:href="#aH"/><use transform="matrix(0.06172839506172839,0,0,0.06172839506172839,45.61728395061728,0)" xlink:href="#aC"/></g><path fill="#3a414a" d="M140-251c80 0 125 45 125 126S219 4 139 4C58 4 15-44 15-125s44-126 125-126zm-1 214c52 0 73-35 73-88 0-50-21-86-72-86-52 0-73 35-73 86s22 88 72 88" id="bG"/><g id="A"><use transform="matrix(0.06172839506172839,0,0,0.06172839506172839,0,0)" xlink:href="#bG"/><use transform="matrix(0.06172839506172839,0,0,0.06172839506172839,17.28395061728395,0)" xlink:href="#aE"/><use transform="matrix(0.06172839506172839,0,0,0.06172839506172839,30.80246913580247,0)" xlink:href="#aI"/><use transform="matrix(0.06172839506172839,0,0,0.06172839506172839,38.148148148148145,0)" xlink:href="#aK"/><use transform="matrix(0.06172839506172839,0,0,0.06172839506172839,51.666666666666664,0)" xlink:href="#aE"/><use transform="matrix(0.06172839506172839,0,0,0.06172839506172839,65.18518518518518,0)" xlink:href="#aI"/></g><g id="B"><use transform="matrix(0.06172839506172839,0,0,0.06172839506172839,0,0)" xlink:href="#bF"/><use transform="matrix(0.06172839506172839,0,0,0.06172839506172839,13.518518518518517,0)" xlink:href="#br"/><use transform="matrix(0.06172839506172839,0,0,0.06172839506172839,19.691358024691358,0)" xlink:href="#aA"/><use transform="matrix(0.06172839506172839,0,0,0.06172839506172839,33.20987654320987,0)" xlink:href="#bs"/><use transform="matrix(0.06172839506172839,0,0,0.06172839506172839,45.55555555555555,0)" xlink:href="#bt"/></g><path fill="#3a414a" d="M169-182c-1-43-94-46-97-3 18 66 151 10 154 114 3 95-165 93-204 36-6-8-10-19-12-30l50-8c3 46 112 56 116 5-17-69-150-10-154-114-4-87 153-88 188-35 5 8 8 18 10 28" id="bH"/><g id="C"><use transform="matrix(0.06172839506172839,0,0,0.06172839506172839,0,0)" xlink:href="#bH"/><use transform="matrix(0.06172839506172839,0,0,0.06172839506172839,14.814814814814813,0)" xlink:href="#aI"/><use transform="matrix(0.06172839506172839,0,0,0.06172839506172839,22.160493827160494,0)" xlink:href="#aJ"/><use transform="matrix(0.06172839506172839,0,0,0.06172839506172839,34.50617283950617,0)" xlink:href="#aI"/><use transform="matrix(0.06172839506172839,0,0,0.06172839506172839,41.85185185185185,0)" xlink:href="#aD"/></g><path fill="#3a414a" d="M195-6C206 82 75 100 31 46c-4-6-6-13-8-21l49-6c3 16 16 24 34 25 40 0 42-37 40-79-11 22-30 35-61 35-53 0-70-43-70-97 0-56 18-96 73-97 30 0 46 14 59 34l2-30h47zm-90-29c32 0 41-27 41-63 0-35-9-62-40-62-32 0-39 29-40 63 0 36 9 62 39 62" id="bI"/><g id="D"><use transform="matrix(0.06172839506172839,0,0,0.06172839506172839,0,0)" xlink:href="#az"/><use transform="matrix(0.06172839506172839,0,0,0.06172839506172839,15.987654320987653,0)" xlink:href="#bw"/><use transform="matrix(0.06172839506172839,0,0,0.06172839506172839,29.50617283950617,0)" xlink:href="#aJ"/><use transform="matrix(0.06172839506172839,0,0,0.06172839506172839,41.85185185185185,0)" xlink:href="#aB"/><use transform="matrix(0.06172839506172839,0,0,0.06172839506172839,55.37037037037037,0)" xlink:href="#bI"/><use transform="matrix(0.06172839506172839,0,0,0.06172839506172839,68.88888888888889,0)" xlink:href="#aD"/></g><g id="E"><use transform="matrix(0.06172839506172839,0,0,0.06172839506172839,0,0)" xlink:href="#bF"/><use transform="matrix(0.06172839506172839,0,0,0.06172839506172839,13.518518518518517,0)" xlink:href="#br"/><use transform="matrix(0.06172839506172839,0,0,0.06172839506172839,19.691358024691358,0)" xlink:href="#aA"/><use transform="matrix(0.06172839506172839,0,0,0.06172839506172839,33.20987654320987,0)" xlink:href="#bs"/><use transform="matrix(0.06172839506172839,0,0,0.06172839506172839,45.55555555555555,0)" xlink:href="#bt"/></g><g id="F"><use transform="matrix(0.06172839506172839,0,0,0.06172839506172839,0,0)" xlink:href="#aG"/><use transform="matrix(0.06172839506172839,0,0,0.06172839506172839,6.172839506172839,0)" xlink:href="#aI"/><use transform="matrix(0.06172839506172839,0,0,0.06172839506172839,13.518518518518519,0)" xlink:href="#aD"/><use transform="matrix(0.06172839506172839,0,0,0.06172839506172839,25.864197530864196,0)" xlink:href="#aH"/><use transform="matrix(0.06172839506172839,0,0,0.06172839506172839,45.61728395061728,0)" xlink:href="#aC"/></g><g id="G"><use transform="matrix(0.06172839506172839,0,0,0.06172839506172839,0,0)" xlink:href="#aF"/><use transform="matrix(0.06172839506172839,0,0,0.06172839506172839,12.28395061728395,0)" xlink:href="#bD"/><use transform="matrix(0.06172839506172839,0,0,0.06172839506172839,20.925925925925924,0)" xlink:href="#aJ"/><use transform="matrix(0.06172839506172839,0,0,0.06172839506172839,33.2716049382716,0)" xlink:href="#bs"/><use transform="matrix(0.06172839506172839,0,0,0.06172839506172839,45.61728395061728,0)" xlink:href="#aD"/></g><path fill="#3a414a" d="M24-248c120-7 223 5 221 122C244-46 201 0 124 0H24v-248zM76-40c74 7 117-18 117-86 0-67-45-88-117-82v168" id="bJ"/><g id="H"><use transform="matrix(0.06172839506172839,0,0,0.06172839506172839,0,0)" xlink:href="#bJ"/><use transform="matrix(0.06172839506172839,0,0,0.06172839506172839,15.987654320987653,0)" xlink:href="#aJ"/><use transform="matrix(0.06172839506172839,0,0,0.06172839506172839,28.333333333333332,0)" xlink:href="#aI"/><use transform="matrix(0.06172839506172839,0,0,0.06172839506172839,35.67901234567901,0)" xlink:href="#aJ"/></g><g id="I"><use transform="matrix(0.06172839506172839,0,0,0.06172839506172839,0,0)" xlink:href="#bE"/><use transform="matrix(0.06172839506172839,0,0,0.06172839506172839,6.172839506172839,0)" xlink:href="#aB"/><use transform="matrix(0.06172839506172839,0,0,0.06172839506172839,19.691358024691358,0)" xlink:href="#aI"/><use transform="matrix(0.06172839506172839,0,0,0.06172839506172839,27.037037037037038,0)" xlink:href="#aD"/><use transform="matrix(0.06172839506172839,0,0,0.06172839506172839,39.382716049382715,0)" xlink:href="#bD"/><use transform="matrix(0.06172839506172839,0,0,0.06172839506172839,48.02469135802469,0)" xlink:href="#aB"/><use transform="matrix(0.06172839506172839,0,0,0.06172839506172839,61.54320987654321,0)" xlink:href="#aJ"/><use transform="matrix(0.06172839506172839,0,0,0.06172839506172839,73.88888888888889,0)" xlink:href="#br"/></g><path fill="#3a414a" d="M175 0L67-191c6 58 2 128 3 191H24v-248h59L193-55c-6-58-2-129-3-193h46V0h-61" id="bK"/><g id="J"><use transform="matrix(0.06172839506172839,0,0,0.06172839506172839,0,0)" xlink:href="#bK"/><use transform="matrix(0.06172839506172839,0,0,0.06172839506172839,15.987654320987653,0)" xlink:href="#aA"/><use transform="matrix(0.06172839506172839,0,0,0.06172839506172839,29.50617283950617,0)" xlink:href="#bC"/><use transform="matrix(0.06172839506172839,0,0,0.06172839506172839,43.02469135802469,0)" xlink:href="#aD"/></g><path fill="#3a414a" d="M182-182c0 78-84 86-111 141h115V0H12c-6-101 99-100 120-180 1-22-12-31-33-32-23 0-32 14-35 34l-49-3c5-45 32-70 84-70 51 0 83 22 83 69" id="bL"/><use transform="matrix(0.06172839506172839,0,0,0.06172839506172839,0,0)" xlink:href="#bL" id="K"/><path fill="#1071e5" d="M474 0H69v-92h165l-1-437-155 70-36-84 205-92h80v543h147V0" id="bM"/><g id="L"><use transform="matrix(0.017777777777777778,0,0,0.017777777777777778,0,0)" xlink:href="#aL"/><use transform="matrix(0.017777777777777778,0,0,0.017777777777777778,8.88888888888889,0)" xlink:href="#aM"/><use transform="matrix(0.017777777777777778,0,0,0.017777777777777778,17.77777777777778,0)" xlink:href="#aN"/><use transform="matrix(0.017777777777777778,0,0,0.017777777777777778,26.666666666666668,0)" xlink:href="#aL"/><use transform="matrix(0.017777777777777778,0,0,0.017777777777777778,35.55555555555556,0)" xlink:href="#aO"/><use transform="matrix(0.017777777777777778,0,0,0.017777777777777778,44.44444444444444,0)" xlink:href="#aP"/><use transform="matrix(0.017777777777777778,0,0,0.017777777777777778,53.33333333333333,0)" xlink:href="#aQ"/><use transform="matrix(0.017777777777777778,0,0,0.017777777777777778,62.222222222222214,0)" xlink:href="#bM"/></g><path fill="#1071e5" d="M438-485c0 90-42 112-97 144v4c82 20 123 74 123 162 0 123-76 185-227 185-61 0-127-14-198-43l32-89c65 25 121 38 166 38 79 0 118-29 118-87 0-75-37-122-110-113l-106 13-13-88 75-11c87-13 130-50 130-110 0-58-41-67-99-69-31 0-79 15-146 44l-34-86c41-20 132-52 187-52 113 0 199 43 199 158" id="bN"/><g id="M"><use transform="matrix(0.017777777777777778,0,0,0.017777777777777778,0,0)" xlink:href="#bz"/><use transform="matrix(0.017777777777777778,0,0,0.017777777777777778,8.88888888888889,0)" xlink:href="#bA"/><use transform="matrix(0.017777777777777778,0,0,0.017777777777777778,17.77777777777778,0)" xlink:href="#bN"/><use transform="matrix(0.017777777777777778,0,0,0.017777777777777778,26.666666666666668,0)" xlink:href="#by"/><use transform="matrix(0.017777777777777778,0,0,0.017777777777777778,35.55555555555556,0)" xlink:href="#be"/></g><path fill="#3a414a" d="M128-127c34 4 56 21 59 58 7 91-148 94-172 28-4-9-6-17-7-26l51-5c1 24 16 35 40 36 23 0 39-12 38-36-1-31-31-36-65-34v-40c32 2 59-3 59-33 0-20-13-33-34-33s-33 13-35 32l-50-3c6-44 37-68 86-68 50 0 83 20 83 66 0 35-22 52-53 58" id="bO"/><use transform="matrix(0.06172839506172839,0,0,0.06172839506172839,0,0)" xlink:href="#bO" id="N"/><path fill="#1071e5" d="M263-425c136-3 203 86 205 217 2 128-98 219-225 219-65 0-134-15-209-46l32-89c75 27 132 40 170 40 74 1 125-48 124-123s-34-122-110-121c-38 0-75 14-111 42l-68-20 10-328h371v92H172l-5 142c29-17 61-25 96-25" id="bP"/><g id="O"><use transform="matrix(0.017777777777777778,0,0,0.017777777777777778,0,0)" xlink:href="#bz"/><use transform="matrix(0.017777777777777778,0,0,0.017777777777777778,8.88888888888889,0)" xlink:href="#bA"/><use transform="matrix(0.017777777777777778,0,0,0.017777777777777778,17.77777777777778,0)" xlink:href="#bP"/><use transform="matrix(0.017777777777777778,0,0,0.017777777777777778,26.666666666666668,0)" xlink:href="#by"/></g><path fill="#1071e5" d="M165-378c131-80 308 14 308 177 0 130-89 212-218 212C121 11 33-82 33-222c0-97 27-179 79-246s134-128 247-183l41 94c-120 62-168 84-235 179zm89 298c69 0 118-45 118-122 0-156-236-141-236-7 0 86 44 129 118 129" id="bQ"/><g id="P"><use transform="matrix(0.017777777777777778,0,0,0.017777777777777778,0,0)" xlink:href="#bz"/><use transform="matrix(0.017777777777777778,0,0,0.017777777777777778,8.88888888888889,0)" xlink:href="#bA"/><use transform="matrix(0.017777777777777778,0,0,0.017777777777777778,17.77777777777778,0)" xlink:href="#bQ"/><use transform="matrix(0.017777777777777778,0,0,0.017777777777777778,26.666666666666668,0)" xlink:href="#by"/><use transform="matrix(0.017777777777777778,0,0,0.017777777777777778,35.55555555555556,0)" xlink:href="#be"/></g><path fill="#3a414a" d="M139-81c0-46-55-55-73-27H18l9-140h149v37H72l-4 63c44-38 133-4 122 66C201 21 21 35 11-62l49-4c5 18 15 30 39 30 26 0 40-18 40-45" id="bR"/><use transform="matrix(0.06172839506172839,0,0,0.06172839506172839,0,0)" xlink:href="#bR" id="Q"/><path fill="#1071e5" d="M339-257C201-195 46-269 46-431c0-132 83-212 216-211 139 1 215 88 215 232 0 142-106 314-198 400-16 16-24 25-25 27L139-2c71-76 154-165 200-255zm-77-294c-68 0-113 40-113 116s47 108 114 108c62 0 114-41 114-108 0-77-38-116-115-116" id="bS"/><g id="R"><use transform="matrix(0.017777777777777778,0,0,0.017777777777777778,0,0)" xlink:href="#bz"/><use transform="matrix(0.017777777777777778,0,0,0.017777777777777778,8.88888888888889,0)" xlink:href="#bA"/><use transform="matrix(0.017777777777777778,0,0,0.017777777777777778,17.77777777777778,0)" xlink:href="#bS"/><use transform="matrix(0.017777777777777778,0,0,0.017777777777777778,26.666666666666668,0)" xlink:href="#by"/></g><g id="S"><use transform="matrix(0.017777777777777778,0,0,0.017777777777777778,0,0)" xlink:href="#bz"/><use transform="matrix(0.017777777777777778,0,0,0.017777777777777778,8.88888888888889,0)" xlink:href="#bA"/><use transform="matrix(0.017777777777777778,0,0,0.017777777777777778,17.77777777777778,0)" xlink:href="#bM"/><use transform="matrix(0.017777777777777778,0,0,0.017777777777777778,26.666666666666668,0)" xlink:href="#aP"/><use transform="matrix(0.017777777777777778,0,0,0.017777777777777778,35.55555555555556,0)" xlink:href="#by"/><use transform="matrix(0.017777777777777778,0,0,0.017777777777777778,44.44444444444444,0)" xlink:href="#be"/></g><path fill="#3a414a" d="M115-159c48 0 72 30 72 78 0 54-30 85-83 85-64 0-91-50-91-122 0-98 58-163 141-120 15 8 21 24 27 44l-47 6c-5-31-48-31-61-4-7 14-11 33-11 60 9-17 28-27 53-27zM102-35c24 0 36-20 36-45s-11-43-37-43c-23 0-36 14-36 38 0 27 11 50 37 50" id="bT"/><use transform="matrix(0.06172839506172839,0,0,0.06172839506172839,0,0)" xlink:href="#bT" id="T"/><g id="U"><use transform="matrix(0.017777777777777778,0,0,0.017777777777777778,0,0)" xlink:href="#bz"/><use transform="matrix(0.017777777777777778,0,0,0.017777777777777778,8.88888888888889,0)" xlink:href="#bA"/><use transform="matrix(0.017777777777777778,0,0,0.017777777777777778,17.77777777777778,0)" xlink:href="#bM"/><use transform="matrix(0.017777777777777778,0,0,0.017777777777777778,26.666666666666668,0)" xlink:href="#bM"/><use transform="matrix(0.017777777777777778,0,0,0.017777777777777778,35.55555555555556,0)" xlink:href="#by"/></g><g id="V"><use transform="matrix(0.017777777777777778,0,0,0.017777777777777778,0,0)" xlink:href="#bz"/><use transform="matrix(0.017777777777777778,0,0,0.017777777777777778,8.88888888888889,0)" xlink:href="#bA"/><use transform="matrix(0.017777777777777778,0,0,0.017777777777777778,17.77777777777778,0)" xlink:href="#bM"/><use transform="matrix(0.017777777777777778,0,0,0.017777777777777778,26.666666666666668,0)" xlink:href="#bx"/><use transform="matrix(0.017777777777777778,0,0,0.017777777777777778,35.55555555555556,0)" xlink:href="#by"/><use transform="matrix(0.017777777777777778,0,0,0.017777777777777778,44.44444444444444,0)" xlink:href="#be"/></g><path fill="#3a414a" d="M23 0v-37h61v-169l-59 37v-38l62-41h46v211h57V0H23" id="bU"/><path fill="#3a414a" d="M101-251c68 0 84 54 84 127C185-50 166 4 99 4S15-52 14-124c-1-75 17-127 87-127zm-1 216c37-5 36-46 36-89s4-89-36-89c-39 0-36 45-36 89 0 43-3 85 36 89" id="bV"/><g id="W"><use transform="matrix(0.06172839506172839,0,0,0.06172839506172839,0,0)" xlink:href="#bU"/><use transform="matrix(0.06172839506172839,0,0,0.06172839506172839,12.345679012345679,0)" xlink:href="#bV"/></g><path fill="#1071e5" d="M243-655c147 2 221 60 221 210 0 87-37 148-112 183 46 87 85 175 116 262H356c-30-81-66-160-108-239-65 4-57 3-107 3V0H37v-655h206zm115 210c0-121-97-122-217-118v231h83c89 0 134-38 134-113" id="bW"/><path fill="#1071e5" d="M251 10C65 10 25-127 25-332s42-333 227-333c187 0 223 126 223 335S440 10 251 10zm93-146c33-47 33-341 0-387-26-66-161-64-186 4-37 54-34 318-3 377 20 76 163 76 189 6" id="bX"/><path fill="#1071e5" d="M64-118c114 33 288 78 288-61 0-71-39-80-105-102-121-39-205-65-205-199 0-123 74-185 222-185 52 0 111 12 178 35l-23 91c-68-21-122-33-161-33-74 0-110 18-110 90 0 67 56 78 127 99 124 37 183 63 183 203C458-54 383 9 232 9 182 9 119-2 43-23" id="bY"/><g id="X"><use transform="matrix(0.017777777777777778,0,0,0.017777777777777778,0,0)" xlink:href="#bW"/><use transform="matrix(0.017777777777777778,0,0,0.017777777777777778,8.88888888888889,0)" xlink:href="#bX"/><use transform="matrix(0.017777777777777778,0,0,0.017777777777777778,17.77777777777778,0)" xlink:href="#bY"/><use transform="matrix(0.017777777777777778,0,0,0.017777777777777778,26.666666666666668,0)" xlink:href="#by"/></g><path fill="#1071e5" d="M32 0v-655h105v282h227v-282h105V0H364v-279H137V0H32" id="bZ"/><g id="Y"><use transform="matrix(0.017777777777777778,0,0,0.017777777777777778,0,0)" xlink:href="#aS"/><use transform="matrix(0.017777777777777778,0,0,0.017777777777777778,8.88888888888889,0)" xlink:href="#bZ"/><use transform="matrix(0.017777777777777778,0,0,0.017777777777777778,17.77777777777778,0)" xlink:href="#bz"/><use transform="matrix(0.017777777777777778,0,0,0.017777777777777778,26.666666666666668,0)" xlink:href="#by"/><use transform="matrix(0.017777777777777778,0,0,0.017777777777777778,35.55555555555556,0)" xlink:href="#be"/></g><g id="Z"><use transform="matrix(0.06172839506172839,0,0,0.06172839506172839,0,0)" xlink:href="#bU"/><use transform="matrix(0.06172839506172839,0,0,0.06172839506172839,11.11111111111111,0)" xlink:href="#bU"/></g><path fill="#1071e5" d="M360-340c75 10 119 69 120 154C480-62 399 0 237 0H45v-655h201c145 0 218 57 218 170 1 73-42 134-104 145zM252-90c81 1 119-34 122-106 4-108-119-93-225-93v199h103zm110-387c0-59-36-88-109-88H149v186h96c78 0 117-33 117-98" id="ca"/><g id="aa"><use transform="matrix(0.017777777777777778,0,0,0.017777777777777778,0,0)" xlink:href="#bz"/><use transform="matrix(0.017777777777777778,0,0,0.017777777777777778,8.88888888888889,0)" xlink:href="#ca"/><use transform="matrix(0.017777777777777778,0,0,0.017777777777777778,17.77777777777778,0)" xlink:href="#bz"/><use transform="matrix(0.017777777777777778,0,0,0.017777777777777778,26.666666666666668,0)" xlink:href="#by"/></g><g id="ab"><use transform="matrix(0.017777777777777778,0,0,0.017777777777777778,0,0)" xlink:href="#bX"/><use transform="matrix(0.017777777777777778,0,0,0.017777777777777778,8.88888888888889,0)" xlink:href="#ca"/><use transform="matrix(0.017777777777777778,0,0,0.017777777777777778,17.77777777777778,0)" xlink:href="#bz"/><use transform="matrix(0.017777777777777778,0,0,0.017777777777777778,26.666666666666668,0)" xlink:href="#by"/><use transform="matrix(0.017777777777777778,0,0,0.017777777777777778,35.55555555555556,0)" xlink:href="#be"/></g><g id="ac"><use transform="matrix(0.06172839506172839,0,0,0.06172839506172839,0,0)" xlink:href="#bU"/><use transform="matrix(0.06172839506172839,0,0,0.06172839506172839,12.345679012345679,0)" xlink:href="#bL"/></g><g id="ad"><use transform="matrix(0.017777777777777778,0,0,0.017777777777777778,0,0)" xlink:href="#bY"/><use transform="matrix(0.017777777777777778,0,0,0.017777777777777778,8.88888888888889,0)" xlink:href="#aS"/><use transform="matrix(0.017777777777777778,0,0,0.017777777777777778,17.77777777777778,0)" xlink:href="#bz"/><use transform="matrix(0.017777777777777778,0,0,0.017777777777777778,26.666666666666668,0)" xlink:href="#by"/></g><path fill="#1071e5" d="M466-314C462-106 405 9 192 0H38v-655h156c226-11 276 112 272 341zM142-90c121 7 197-16 210-114 13-92 19-266-28-320-38-43-97-40-182-41v475" id="cb"/><g id="ae"><use transform="matrix(0.017777777777777778,0,0,0.017777777777777778,0,0)" xlink:href="#aX"/><use transform="matrix(0.017777777777777778,0,0,0.017777777777777778,8.88888888888889,0)" xlink:href="#cb"/><use transform="matrix(0.017777777777777778,0,0,0.017777777777777778,17.77777777777778,0)" xlink:href="#bz"/><use transform="matrix(0.017777777777777778,0,0,0.017777777777777778,26.666666666666668,0)" xlink:href="#by"/><use transform="matrix(0.017777777777777778,0,0,0.017777777777777778,35.55555555555556,0)" xlink:href="#be"/></g><path fill="#3a414a" d="M99-251c69 0 84 53 88 123 5 99-61 162-144 118-15-8-21-25-26-45l46-6c4 31 50 33 63 7 7-15 12-36 12-60-9 18-29 28-54 28-48 0-72-32-72-82 0-55 31-83 87-83zm-1 128c24 0 37-16 37-39 0-27-10-51-37-51-25 0-35 19-35 45 0 25 10 45 35 45" id="cc"/><use transform="matrix(0.06172839506172839,0,0,0.06172839506172839,0,0)" xlink:href="#cc" id="af"/><path fill="#1071e5" d="M251-655c152 1 219 66 219 217 0 152-74 228-222 228h-99V0H45v-655h206zm113 217c0-93-39-123-129-125h-86v258h86c91-1 129-40 129-133" id="cd"/><g id="ag"><use transform="matrix(0.017777777777777778,0,0,0.017777777777777778,0,0)" xlink:href="#cd"/><use transform="matrix(0.017777777777777778,0,0,0.017777777777777778,8.88888888888889,0)" xlink:href="#ca"/><use transform="matrix(0.017777777777777778,0,0,0.017777777777777778,17.77777777777778,0)" xlink:href="#bW"/><use transform="matrix(0.017777777777777778,0,0,0.017777777777777778,26.666666666666668,0)" xlink:href="#by"/></g><g id="ah"><use transform="matrix(0.017777777777777778,0,0,0.017777777777777778,0,0)" xlink:href="#bW"/><use transform="matrix(0.017777777777777778,0,0,0.017777777777777778,8.88888888888889,0)" xlink:href="#bX"/><use transform="matrix(0.017777777777777778,0,0,0.017777777777777778,17.77777777777778,0)" xlink:href="#ca"/><use transform="matrix(0.017777777777777778,0,0,0.017777777777777778,26.666666666666668,0)" xlink:href="#bZ"/><use transform="matrix(0.017777777777777778,0,0,0.017777777777777778,35.55555555555556,0)" xlink:href="#by"/><use transform="matrix(0.017777777777777778,0,0,0.017777777777777778,44.44444444444444,0)" xlink:href="#be"/></g><path fill="#3a414a" d="M24-248c93 1 206-16 204 79-1 75-69 88-152 82V0H24v-248zm52 121c47 0 100 7 100-41 0-47-54-39-100-39v80" id="ce"/><path fill="#3a414a" d="M128 0H69L1-190h53L99-40l48-150h52" id="cf"/><g id="ai"><use transform="matrix(0.06172839506172839,0,0,0.06172839506172839,0,0)" xlink:href="#ce"/><use transform="matrix(0.06172839506172839,0,0,0.06172839506172839,14.814814814814813,0)" xlink:href="#bD"/><use transform="matrix(0.06172839506172839,0,0,0.06172839506172839,23.456790123456788,0)" xlink:href="#aD"/><use transform="matrix(0.06172839506172839,0,0,0.06172839506172839,35.80246913580247,0)" xlink:href="#cf"/><use transform="matrix(0.06172839506172839,0,0,0.06172839506172839,48.148148148148145,0)" xlink:href="#aG"/><use transform="matrix(0.06172839506172839,0,0,0.06172839506172839,54.32098765432099,0)" xlink:href="#aA"/><use transform="matrix(0.06172839506172839,0,0,0.06172839506172839,67.8395061728395,0)" xlink:href="#aE"/><use transform="matrix(0.06172839506172839,0,0,0.06172839506172839,81.35802469135803,0)" xlink:href="#aC"/></g><g id="aj"><use transform="matrix(0.06172839506172839,0,0,0.06172839506172839,0,0)" xlink:href="#bu"/><use transform="matrix(0.06172839506172839,0,0,0.06172839506172839,15.987654320987653,0)" xlink:href="#aA"/><use transform="matrix(0.06172839506172839,0,0,0.06172839506172839,29.50617283950617,0)" xlink:href="#aA"/><use transform="matrix(0.06172839506172839,0,0,0.06172839506172839,43.02469135802469,0)" xlink:href="#aI"/></g><path fill="#1071e5" d="M114-157C55-157 80-60 75 0H25v-261h50l-1 109c12-26 28-41 61-42 86-1 58 113 63 194h-50c-7-57 23-157-34-157" id="cg"/><path fill="#1071e5" d="M133-34C117-15 103 5 69 4 32 3 11-16 11-54c-1-60 55-63 116-61 1-26-3-47-28-47-18 1-26 9-28 27l-52-2c7-38 36-58 82-57s74 22 75 68l1 82c-1 14 12 18 25 15v27c-30 8-71 5-69-32zm-48 3c29 0 43-24 42-57-32 0-66-3-65 30 0 17 8 27 23 27" id="ch"/><path fill="#1071e5" d="M137-138c1-29-70-34-71-4 15 46 118 7 119 86 1 83-164 76-172 9l43-7c4 19 20 25 44 25 33 8 57-30 24-41C81-84 22-81 20-136c-2-80 154-74 161-7" id="ci"/><path fill="#1071e5" d="M67-93c0 74 22 123 53 168H70C40 30 18-18 18-93s22-123 52-168h50c-32 44-53 94-53 168" id="cj"/><path fill="#1071e5" d="M101-251c68 0 84 54 84 127C185-50 166 4 99 4S15-52 14-124c-1-75 17-127 87-127zm-1 216c37-5 36-46 36-89s4-89-36-89c-39 0-36 45-36 89 0 43-3 85 36 89" id="ck"/><path fill="#1071e5" d="M144 0l-44-69L55 0H2l70-98-66-92h53l41 62 40-62h54l-67 91 71 99h-54" id="cl"/><path fill="#1071e5" d="M102-93c0 74-22 123-52 168H0C30 29 54-18 53-93c0-74-22-123-53-168h50c30 45 52 94 52 168" id="cm"/><g id="ak"><use transform="matrix(0.04320987654320988,0,0,0.04320987654320988,0,0)" xlink:href="#cg"/><use transform="matrix(0.04320987654320988,0,0,0.04320987654320988,9.462962962962964,0)" xlink:href="#ch"/><use transform="matrix(0.04320987654320988,0,0,0.04320987654320988,18.10493827160494,0)" xlink:href="#ci"/><use transform="matrix(0.04320987654320988,0,0,0.04320987654320988,26.746913580246915,0)" xlink:href="#cg"/><use transform="matrix(0.04320987654320988,0,0,0.04320987654320988,36.20987654320988,0)" xlink:href="#cj"/><use transform="matrix(0.04320987654320988,0,0,0.04320987654320988,41.351851851851855,0)" xlink:href="#ck"/><use transform="matrix(0.04320987654320988,0,0,0.04320987654320988,49.99382716049383,0)" xlink:href="#cl"/><use transform="matrix(0.04320987654320988,0,0,0.04320987654320988,58.63580246913581,0)" xlink:href="#ck"/><use transform="matrix(0.04320987654320988,0,0,0.04320987654320988,67.27777777777779,0)" xlink:href="#cm"/></g><g id="al"><use transform="matrix(0.06172839506172839,0,0,0.06172839506172839,0,0)" xlink:href="#aC"/><use transform="matrix(0.06172839506172839,0,0,0.06172839506172839,12.345679012345679,0)" xlink:href="#aI"/><use transform="matrix(0.06172839506172839,0,0,0.06172839506172839,19.691358024691358,0)" xlink:href="#aJ"/><use transform="matrix(0.06172839506172839,0,0,0.06172839506172839,32.03703703703704,0)" xlink:href="#aI"/><use transform="matrix(0.06172839506172839,0,0,0.06172839506172839,39.382716049382715,0)" xlink:href="#aD"/></g><g id="am"><use transform="matrix(0.06172839506172839,0,0,0.06172839506172839,0,0)" xlink:href="#aJ"/><use transform="matrix(0.06172839506172839,0,0,0.06172839506172839,12.345679012345679,0)" xlink:href="#aI"/></g><g id="an"><use transform="matrix(0.06172839506172839,0,0,0.06172839506172839,0,0)" xlink:href="#aC"/><use transform="matrix(0.06172839506172839,0,0,0.06172839506172839,12.345679012345679,0)" xlink:href="#aI"/><use transform="matrix(0.06172839506172839,0,0,0.06172839506172839,19.691358024691358,0)" xlink:href="#aJ"/><use transform="matrix(0.06172839506172839,0,0,0.06172839506172839,32.03703703703704,0)" xlink:href="#bD"/><use transform="matrix(0.06172839506172839,0,0,0.06172839506172839,40.67901234567901,0)" xlink:href="#aI"/></g><g id="ao"><use transform="matrix(0.06172839506172839,0,0,0.06172839506172839,0,0)" xlink:href="#aA"/><use transform="matrix(0.06172839506172839,0,0,0.06172839506172839,13.518518518518517,0)" xlink:href="#bB"/></g><g id="ap"><use transform="matrix(0.06172839506172839,0,0,0.06172839506172839,0,0)" xlink:href="#bF"/><use transform="matrix(0.06172839506172839,0,0,0.06172839506172839,13.518518518518517,0)" xlink:href="#br"/><use transform="matrix(0.06172839506172839,0,0,0.06172839506172839,19.691358024691358,0)" xlink:href="#aA"/><use transform="matrix(0.06172839506172839,0,0,0.06172839506172839,33.20987654320987,0)" xlink:href="#bs"/><use transform="matrix(0.06172839506172839,0,0,0.06172839506172839,45.55555555555555,0)" xlink:href="#bt"/></g><g id="aq"><use transform="matrix(0.06172839506172839,0,0,0.06172839506172839,0,0)" xlink:href="#aI"/><use transform="matrix(0.06172839506172839,0,0,0.06172839506172839,7.345679012345679,0)" xlink:href="#bD"/><use transform="matrix(0.06172839506172839,0,0,0.06172839506172839,15.987654320987653,0)" xlink:href="#aD"/><use transform="matrix(0.06172839506172839,0,0,0.06172839506172839,28.333333333333332,0)" xlink:href="#aD"/></g><g id="ar"><use transform="matrix(0.06172839506172839,0,0,0.06172839506172839,0,0)" xlink:href="#aJ"/><use transform="matrix(0.06172839506172839,0,0,0.06172839506172839,12.345679012345679,0)" xlink:href="#br"/><use transform="matrix(0.06172839506172839,0,0,0.06172839506172839,18.51851851851852,0)" xlink:href="#br"/></g><g id="as"><use transform="matrix(0.06172839506172839,0,0,0.06172839506172839,0,0)" xlink:href="#aK"/><use transform="matrix(0.06172839506172839,0,0,0.06172839506172839,13.518518518518517,0)" xlink:href="#bD"/><use transform="matrix(0.06172839506172839,0,0,0.06172839506172839,22.160493827160494,0)" xlink:href="#aD"/><use transform="matrix(0.06172839506172839,0,0,0.06172839506172839,34.50617283950617,0)" xlink:href="#cf"/><use transform="matrix(0.06172839506172839,0,0,0.06172839506172839,46.85185185185185,0)" xlink:href="#aG"/><use transform="matrix(0.06172839506172839,0,0,0.06172839506172839,53.02469135802469,0)" xlink:href="#aA"/><use transform="matrix(0.06172839506172839,0,0,0.06172839506172839,66.5432098765432,0)" xlink:href="#aE"/><use transform="matrix(0.06172839506172839,0,0,0.06172839506172839,80.06172839506172,0)" xlink:href="#aC"/></g><g id="at"><use transform="matrix(0.06172839506172839,0,0,0.06172839506172839,0,0)" xlink:href="#bw"/><use transform="matrix(0.06172839506172839,0,0,0.06172839506172839,13.518518518518517,0)" xlink:href="#aJ"/><use transform="matrix(0.06172839506172839,0,0,0.06172839506172839,25.864197530864196,0)" xlink:href="#aC"/><use transform="matrix(0.06172839506172839,0,0,0.06172839506172839,38.20987654320987,0)" xlink:href="#bw"/><use transform="matrix(0.06172839506172839,0,0,0.06172839506172839,51.72839506172839,0)" xlink:href="#aD"/><use transform="matrix(0.06172839506172839,0,0,0.06172839506172839,64.07407407407408,0)" xlink:href="#aC"/></g></defs></g></svg>